<?xml version="1.0" encoding="UTF-8"?>
<svg version="1.1" xmlns="http://www.w3.org/2000/svg" width="944" height="212">
<path d="M0 0 C23.76 0 47.52 0 72 0 C72 3.3 72 6.6 72 10 C75.63 10 79.26 10 83 10 C83 23.53 83 37.06 83 51 C79.37 51 75.74 51 72 51 C72 54.3 72 57.6 72 61 C51.87 61 31.74 61 11 61 C11 67.27 11 73.54 11 80 C34.43 80 57.86 80 82 80 C82 87.26 82 94.52 82 102 C55.27 102 28.54 102 1 102 C1 98.37 1 94.74 1 91 C-2.63 91 -6.26 91 -10 91 C-10 64.27 -10 37.54 -10 10 C-6.7 10 -3.4 10 0 10 C0 6.7 0 3.4 0 0 Z M11 21 C11 27.27 11 33.54 11 40 C27.5 40 44 40 61 40 C61 33.73 61 27.46 61 21 C44.5 21 28 21 11 21 Z " fill="#0F9BB4" transform="translate(161,41)"/>
<path d="M0 0 C0.9873967 -0.00428513 1.9747934 -0.00857025 2.99211121 -0.01298523 C5.07391598 -0.01870783 7.15574074 -0.01924412 9.23754883 -0.01489258 C12.39765115 -0.01173903 15.55681048 -0.0351961 18.71679688 -0.06054688 C20.74869675 -0.06282094 22.78059911 -0.06352287 24.8125 -0.0625 C25.74512161 -0.07170975 26.67774323 -0.08091949 27.6386261 -0.09040833 C37.81292259 -0.01980541 46.02998879 2.41237971 53.60546875 9.30078125 C59.6666114 15.53028897 61.8644897 22.21159936 62.10546875 30.80078125 C61.806848 40.44334172 58.99343437 46.56128509 52.46484375 53.578125 C44.5411168 60.91922497 35.73100069 61.5903704 25.42578125 61.49609375 C24.25788055 61.49326385 23.08997986 61.49043396 21.88668823 61.48751831 C18.16784284 61.47635098 14.44924098 61.45125229 10.73046875 61.42578125 C8.20443057 61.41574701 5.6783886 61.40662194 3.15234375 61.3984375 C-3.03003058 61.3764229 -9.21226351 61.3429794 -15.39453125 61.30078125 C-15.36134079 63.53057691 -15.29177122 65.7598492 -15.20703125 67.98828125 C-15.15482422 69.85033203 -15.15482422 69.85033203 -15.1015625 71.75 C-14.58492923 75.32710424 -14.58492923 75.32710424 -12.72241211 78.22021484 C-7.30030271 81.61007739 -1.56925932 80.96506694 4.6640625 80.90234375 C6.05503073 80.90784824 7.44599081 80.91597675 8.83692932 80.92660522 C12.49263051 80.94945815 16.14773306 80.94528572 19.8034668 80.93280029 C25.65026662 80.91447526 31.49671483 80.92455551 37.34343147 80.95866013 C39.37875958 80.96473832 41.413325 80.95153725 43.44859314 80.93667603 C44.69330887 80.94033173 45.9380246 80.94398743 47.22045898 80.94775391 C48.31124252 80.94377594 49.40202606 80.93979797 50.52586365 80.93569946 C54.13755071 81.36385863 56.51123552 82.41033148 59.60546875 84.30078125 C62.27980053 88.31227893 62.42449286 91.58518786 61.60546875 96.30078125 C58.93161703 99.86591688 56.94109123 101.54302044 52.60546875 102.30078125 C50.63692666 102.39697825 48.66545816 102.43887389 46.69458008 102.44604492 C45.50266556 102.45242477 44.31075104 102.45880463 43.0827179 102.46537781 C41.15458504 102.46704704 41.15458504 102.46704704 39.1875 102.46875 C37.84714218 102.4719665 36.50678471 102.47533087 35.16642761 102.47883606 C32.35630481 102.48481951 29.54621271 102.48667691 26.73608398 102.48608398 C23.15652011 102.48598274 19.57715629 102.49959909 15.99763966 102.51685619 C13.22732156 102.52804621 10.45705063 102.53000101 7.68671227 102.52947426 C5.73211061 102.53121038 3.77752367 102.54201151 1.82295227 102.55302429 C-9.43034178 102.52435581 -18.98345442 101.53198819 -27.34375 93.40625 C-33.49987567 86.65645183 -36.48342975 80.37448569 -36.55566406 71.19433594 C-36.56527161 70.20270447 -36.57487915 69.211073 -36.58477783 68.18939209 C-36.58902771 67.12786926 -36.59327759 66.06634644 -36.59765625 64.97265625 C-36.60335632 63.86907776 -36.6090564 62.76549927 -36.6149292 61.628479 C-36.62436426 59.29513503 -36.63090724 56.96177783 -36.63476562 54.62841797 C-36.64445815 51.07756006 -36.67549118 47.52728437 -36.70703125 43.9765625 C-36.71356324 41.7044305 -36.71881294 39.43229439 -36.72265625 37.16015625 C-36.73500305 36.10673035 -36.74734985 35.05330444 -36.7600708 33.96795654 C-36.73300418 24.91081154 -35.00245142 17.3107452 -29.26171875 10.15625 C-20.94580747 1.89253063 -11.22897295 -0.01090256 0 0 Z M-14.3203125 25.03515625 C-15.85677821 28.27570212 -15.68099803 30.9879772 -15.58203125 34.55078125 C-15.55496094 35.8140625 -15.52789063 37.07734375 -15.5 38.37890625 C-15.46519531 39.343125 -15.43039062 40.30734375 -15.39453125 41.30078125 C-8.66853103 41.37698138 -1.94264257 41.42944417 4.78369141 41.46557617 C7.0708431 41.48064241 9.357966 41.50109922 11.64501953 41.52709961 C14.93659582 41.56357731 18.22778937 41.58052959 21.51953125 41.59375 C23.04799179 41.61697578 23.04799179 41.61697578 24.60733032 41.64067078 C30.03026428 41.64195005 33.94659222 41.41341291 38.60546875 38.30078125 C41.20394896 35.28319133 41.60546875 33.80489509 41.60546875 29.80078125 C40.41488731 25.63374621 38.98088035 23.96971135 35.60546875 21.30078125 C31.69711348 19.83464296 27.48599999 20.1204864 23.3671875 20.09765625 C22.56819534 20.09195618 21.76920319 20.0862561 20.94599915 20.0803833 C19.25738847 20.07095254 17.56875955 20.06440697 15.88012695 20.06054688 C13.31233161 20.05085434 10.74534162 20.01981889 8.17773438 19.98828125 C6.53255681 19.98174907 4.88737355 19.97649944 3.2421875 19.97265625 C2.48153488 19.96030945 1.72088226 19.94796265 0.93717957 19.9352417 C-5.00334995 19.95975348 -9.75280187 20.92161727 -14.3203125 25.03515625 Z " fill="#0F9AB4" transform="translate(614.39453125,40.69921875)"/>
<path d="M0 0 C3.55149881 3.39354675 4.83441823 4.89085141 5.56762695 9.80224609 C5.56639377 11.20955791 5.53942391 12.61705473 5.48828125 14.0234375 C5.48324585 14.68577393 5.47821045 15.34811035 5.47302246 16.03051758 C5.4470749 18.47912557 5.37726806 20.92711122 5.3125 23.375 C5.209375 28.86125 5.10625 34.3475 5 40 C23.48 40 41.96 40 61 40 C60.80249633 28.70605903 60.80249633 28.70605903 60.54956055 17.41333008 C60.53494833 15.99041625 60.52220939 14.56748143 60.51171875 13.14453125 C60.48613892 12.41439819 60.46055908 11.68426514 60.4342041 10.93200684 C60.43083248 6.97034636 60.83797986 5.20615931 63.31567383 2.0534668 C66.69580903 -0.53228284 68.75716884 -1 73 -1 C77.01519063 0.51516628 78.60368353 1.4055253 81 5 C81.21033657 7.87236377 81.30407531 10.64912162 81.30639648 13.52294922 C81.31472 14.39317719 81.32304352 15.26340515 81.33161926 16.16000366 C81.35574785 19.04161023 81.36449479 21.92299057 81.37109375 24.8046875 C81.3800578 26.8062446 81.3891796 28.807801 81.39845276 30.80935669 C81.41495301 35.0075239 81.42264478 39.20561126 81.42553711 43.40380859 C81.43092244 48.78324353 81.46860443 54.16192808 81.51428127 59.54115105 C81.54402393 63.67614482 81.55126006 67.81095728 81.55226326 71.94604874 C81.55647099 73.92920494 81.56892738 75.91236142 81.58978081 77.89541245 C81.61663773 80.67025676 81.61188701 83.44335379 81.59936523 86.21826172 C81.61419952 87.03713867 81.62903381 87.85601562 81.64431763 88.69970703 C81.58921867 92.98753682 81.37788924 94.53039086 78.58924866 97.99588013 C75.06460623 100.72400973 72.41852228 101.46601602 68 101 C62.56790123 98.13580247 62.56790123 98.13580247 61 95 C60.91333573 92.37397954 60.88432441 89.77415384 60.90234375 87.1484375 C60.90335083 86.46241455 60.90435791 85.7763916 60.90539551 85.06958008 C60.91063111 82.50470307 60.92459237 79.93984987 60.9375 77.375 C60.958125 71.64125 60.97875 65.9075 61 60 C42.52 60 24.04 60 5 60 C5.19734871 70.91982011 5.19734871 70.91982011 5.45043945 81.83837891 C5.4650565 83.21775367 5.47779429 84.59715016 5.48828125 85.9765625 C5.51386108 86.67998779 5.53944092 87.38341309 5.5657959 88.1081543 C5.56921877 92.01433232 5.01606076 94.44934483 2.59619141 97.44238281 C-0.49096303 100.4836683 -1.85462339 101.01475322 -6.00390625 101.234375 C-9.48860711 100.82521247 -11.44828983 99.30869016 -14 97 C-16.294334 92.72503515 -16.29014542 88.55555054 -16.2746582 83.81665039 C-16.27976913 83.00625809 -16.28488007 82.19586578 -16.29014587 81.36091614 C-16.3040131 78.68975378 -16.30308732 76.01885026 -16.30078125 73.34765625 C-16.30466965 71.48587448 -16.30900462 69.62409359 -16.31376648 67.76231384 C-16.32122244 63.86275352 -16.32094185 59.96328375 -16.31567383 56.0637207 C-16.30987893 51.07248548 -16.32681371 46.08162131 -16.3500185 41.09044743 C-16.364767 37.24622947 -16.36562604 33.40210066 -16.36250877 29.55785942 C-16.36302139 27.71790265 -16.36824787 25.87794082 -16.37832069 24.03801155 C-16.39068997 21.46267871 -16.38389076 18.8880659 -16.37231445 16.31274414 C-16.38378006 15.17869141 -16.38378006 15.17869141 -16.39547729 14.02172852 C-16.34847427 9.27867495 -15.54291231 6.01278966 -13 2 C-8.49415621 -1.17457176 -5.26474918 -1.62728611 0 0 Z " fill="#0F9BB3" transform="translate(811,42)"/>
<path d="M0 0 C2.97 0 5.94 0 9 0 C9 1.32 9 2.64 9 4 C12.3 4 15.6 4 19 4 C19 16.21 19 28.42 19 41 C37.81 41 56.62 41 76 41 C76 28.79 76 16.58 76 4 C79.3 4 82.6 4 86 4 C86 2.68 86 1.36 86 0 C88.97 0 91.94 0 95 0 C95 33.66 95 67.32 95 102 C88.73 102 82.46 102 76 102 C76 88.14 76 74.28 76 60 C57.19 60 38.38 60 19 60 C19 73.86 19 87.72 19 102 C12.73 102 6.46 102 0 102 C0 68.34 0 34.68 0 0 Z " fill="#109BB4" transform="translate(363,41)"/>
<path d="M0 0 C23.43 0 46.86 0 71 0 C71 6.6 71 13.2 71 20 C51.2 20 31.4 20 11 20 C11 23.63 11 27.26 11 31 C7.7 31 4.4 31 1 31 C1 43.87 1 56.74 1 70 C4.3 70 7.6 70 11 70 C11 73.3 11 76.6 11 80 C30.8 80 50.6 80 71 80 C71 86.93 71 93.86 71 101 C47.57 101 24.14 101 0 101 C0 97.7 0 94.4 0 91 C-3.3 91 -6.6 91 -10 91 C-10 87.7 -10 84.4 -10 81 C-13.3 81 -16.6 81 -20 81 C-20 60.87 -20 40.74 -20 20 C-16.7 20 -13.4 20 -10 20 C-10 16.7 -10 13.4 -10 10 C-6.7 10 -3.4 10 0 10 C0 6.7 0 3.4 0 0 Z " fill="#109AB3" transform="translate(280,42)"/>
<path d="M0 0 C0.95627792 -0.00570007 1.91255585 -0.01140015 2.89781189 -0.01727295 C4.91241358 -0.0266877 6.92703042 -0.03324285 8.94165039 -0.03710938 C12.02061587 -0.04685371 15.09892418 -0.07792598 18.17773438 -0.109375 C20.13931897 -0.11590217 22.10090831 -0.12115376 24.0625 -0.125 C24.98031754 -0.1373468 25.89813507 -0.1496936 26.84376526 -0.16241455 C31.68969387 -0.14552692 35.07605308 -0.02830529 38.96484375 3.203125 C41.42898799 6.89934136 41.76584677 9.91492699 40.96484375 14.203125 C39.34481908 17.21082021 37.3976339 19.71345959 34.05912781 20.85441589 C31.90386337 21.21327855 29.89079753 21.33452796 27.70629883 21.3449707 C26.87475784 21.35200516 26.04321686 21.35903961 25.18647766 21.36628723 C24.29478378 21.37045151 23.4030899 21.37461578 22.484375 21.37890625 C20.5787651 21.40211322 18.67316612 21.42623091 16.76757812 21.45117188 C13.77686338 21.48618966 10.78654854 21.51558355 7.7956543 21.52905273 C4.89973929 21.54463119 2.00498027 21.58490855 -0.890625 21.62890625 C-1.77219772 21.62699783 -2.65377045 21.62508942 -3.5620575 21.62312317 C-12.53819498 21.79782469 -19.70375761 25.03935062 -26.2421875 31.16015625 C-31.80188 37.49505642 -34.24980447 44.83184447 -34.03515625 53.203125 C-33.3420541 61.75138486 -29.19056531 68.04771594 -23.22265625 74.015625 C-15.88140586 79.05373802 -9.59468635 80.78776913 -0.7421875 80.70703125 C0.20747391 80.71645248 1.15713531 80.72587372 2.13557434 80.73558044 C5.14138849 80.76403034 8.14640643 80.76731522 11.15234375 80.765625 C14.16887525 80.7692405 17.18483567 80.77882649 20.20124817 80.80638123 C22.0698985 80.82308734 23.93873725 80.82611036 25.80741882 80.81336975 C30.94676108 80.85491975 34.51173695 81.34057084 38.96484375 84.203125 C41.59493828 87.55051804 41.25901353 91.08474805 40.96484375 95.203125 C40.09725371 98.32644913 39.22615015 99.03708762 36.46777344 100.78979492 C32.00653499 102.58977467 28.30319817 102.61760024 23.54296875 102.56640625 C22.19292755 102.56715401 22.19292755 102.56715401 20.81561279 102.56791687 C18.91611519 102.56558336 17.01661408 102.55589763 15.1171875 102.53930664 C12.2379935 102.51581389 9.35973372 102.51873935 6.48046875 102.52539062 C4.62629665 102.51980939 2.77212841 102.51269672 0.91796875 102.50390625 C0.0697052 102.50481766 -0.77855835 102.50572906 -1.65252686 102.50666809 C-17.50605276 102.3225487 -30.38041795 97.08104528 -42.07421875 86.328125 C-52.64344833 75.15360914 -55.68478971 61.59053233 -55.34375 46.75 C-54.6924628 33.78911454 -48.57504622 21.67693225 -39.109375 12.828125 C-27.10949082 3.42708579 -14.95320729 0.06939263 0 0 Z " fill="#0F9BB4" transform="translate(742.03515625,40.796875)"/>
<path d="M0 0 C33.99 0 67.98 0 103 0 C102.67 6.6 102.34 13.2 102 20 C88.8 20 75.6 20 62 20 C62 47.06 62 74.12 62 102 C55.07 102 48.14 102 41 102 C41 74.94 41 47.88 41 20 C27.47 20 13.94 20 0 20 C0 13.4 0 6.8 0 0 Z " fill="#0F9AB4" transform="translate(39,41)"/>
<path d="M0 0 C0.83965302 -0.00671722 1.67930603 -0.01343445 2.54440308 -0.02035522 C5.31294716 -0.03931342 8.08124861 -0.04325809 10.84985352 -0.04541016 C12.77889607 -0.05183879 14.70793764 -0.0585672 16.63697815 -0.06558228 C20.67776755 -0.077549 24.71847148 -0.08126364 28.75927734 -0.08007812 C33.93219708 -0.07987479 39.10456835 -0.10719506 44.27735806 -0.14162254 C48.260549 -0.16387799 52.24360757 -0.16791611 56.22685432 -0.16685867 C58.13380896 -0.16921597 60.04076716 -0.17804676 61.94766045 -0.19352341 C64.616538 -0.21315924 67.28422758 -0.20735542 69.953125 -0.1953125 C70.73721237 -0.20655151 71.52129974 -0.21779053 72.32914734 -0.22937012 C77.50875864 -0.17009527 80.40418425 0.91532411 84.54125977 4.29052734 C86.66452202 6.9676841 86.54259561 8.25379161 86.41625977 11.72802734 C85.46347078 15.60723965 84.34612149 17.48566562 81.54125977 20.29052734 C77.90892874 21.50130435 74.5900399 21.41496899 70.81079102 21.38818359 C70.06037033 21.38676865 69.30994965 21.3853537 68.53678894 21.38389587 C66.14240516 21.37830294 63.74811524 21.36575178 61.35375977 21.35302734 C59.72941216 21.34801143 58.10506308 21.34344868 56.48071289 21.33935547 C52.50085908 21.32833583 48.52107533 21.31107608 44.54125977 21.29052734 C44.55791435 22.68328133 44.55791435 22.68328133 44.5749054 24.10417175 C44.67513142 32.85863934 44.751237 41.61291397 44.80032063 50.3678236 C44.82640367 54.86875591 44.86177752 59.36921379 44.91845703 63.86987305 C44.97282383 68.21412626 45.00269003 72.55792344 45.01564598 76.90249062 C45.02487757 78.55912772 45.04290522 80.21574013 45.06991005 81.87218285 C45.10626474 84.19471336 45.11120278 86.51536504 45.10888672 88.83813477 C45.13585129 89.86312828 45.13585129 89.86312828 45.1633606 90.90882874 C45.12275589 94.6774811 44.60346121 96.21270897 42.22062683 99.19380188 C38.84714144 101.83370621 36.80972487 102.29052734 32.54125977 102.29052734 C29.43023299 101.17525359 27.30030778 100.38283211 25.38748169 97.63018799 C24.20828489 94.36990806 24.30242276 91.50860578 24.31420898 88.04345703 C24.31391693 87.3211087 24.31362488 86.59876038 24.31332397 85.85452271 C24.31471415 83.47369252 24.33026043 81.09317767 24.34594727 78.71240234 C24.34967851 77.05902274 24.35252496 75.40564091 24.35452271 73.7522583 C24.36215039 69.4055366 24.38179143 65.05894906 24.40393066 60.71228027 C24.42440773 56.27483942 24.4335284 51.83737685 24.44360352 47.39990234 C24.46503816 38.69671586 24.49916364 29.9936383 24.54125977 21.29052734 C23.03559448 21.31409302 23.03559448 21.31409302 21.49951172 21.33813477 C17.76294022 21.39257848 14.02640356 21.4269296 10.28955078 21.45532227 C8.67458188 21.4703761 7.05965363 21.49082382 5.44482422 21.5168457 C3.11879421 21.55338021 0.79330636 21.57028749 -1.53295898 21.58349609 C-2.60981209 21.60672188 -2.60981209 21.60672188 -3.7084198 21.63041687 C-8.15251353 21.63189704 -10.94212124 21.04681807 -14.45874023 18.29052734 C-16.93505244 14.57605903 -16.9967925 11.59494548 -16.45874023 7.29052734 C-15.17730255 4.18809926 -14.33838648 2.76087992 -11.37413025 1.1758728 C-7.56947657 0.02047581 -3.93809197 -0.00454055 0 0 Z " fill="#0F9BB4" transform="translate(482.458740234375,40.70947265625)"/>
<path d="M0 0 C1.2375 0.1546875 1.2375 0.1546875 2.5 0.3125 C5.03686376 4.11779564 5.09355135 6.85159062 4.5 11.3125 C3.3125 13.375 3.3125 13.375 1.5 14.3125 C-1.0625 14.25 -1.0625 14.25 -3.5 13.3125 C-5.73503918 10.67109006 -5.49036332 9.17276815 -5.25 5.6875 C-4.39609983 1.84494925 -4.00795994 0.50099499 0 0 Z M-0.5 2.3125 C-2.80662599 4.19909875 -2.80662599 4.19909875 -2.8125 7.3125 C-2.709375 8.3025 -2.60625 9.2925 -2.5 10.3125 C-1.015 11.3025 -1.015 11.3025 0.5 12.3125 C1.70561184 11.32982141 1.70561184 11.32982141 1.59765625 9.46484375 C1.58605469 8.73394531 1.57445312 8.00304687 1.5625 7.25 C1.541875 5.950625 1.52125 4.65125 1.5 3.3125 C0.84 2.9825 0.18 2.6525 -0.5 2.3125 Z " fill="#FEFEFE" transform="translate(649.5,171.6875)"/>
<path d="M0 0 C2.4375 -0.4375 2.4375 -0.4375 5 0 C7.50907308 2.24951379 7.95656309 3.65250472 8.375 7 C7.96644557 10.26843543 7.20409407 11.61223142 5 14 C0.25 13.25 0.25 13.25 -2 11 C-2.46376812 3.69565217 -2.46376812 3.69565217 0 0 Z M2 2 C0.79438816 2.98267859 0.79438816 2.98267859 0.90234375 4.84765625 C0.91394531 5.57855469 0.92554688 6.30945313 0.9375 7.0625 C0.958125 8.361875 0.97875 9.66125 1 11 C1.99 11 2.98 11 4 11 C5.33648017 9.88898816 5.33648017 9.88898816 5.125 7.0625 C5.21325664 4.08454272 5.21325664 4.08454272 4 2 C3.34 2 2.68 2 2 2 Z " fill="#FEFEFE" transform="translate(546,172)"/>
<path d="M0 0 C2.5625 0.5 2.5625 0.5 4.4375 2.5625 C5.87316817 6.31118911 5.51011602 8.63664239 4.5625 12.5 C3.9025 13.16 3.2425 13.82 2.5625 14.5 C-0.5 14.25 -0.5 14.25 -3.4375 13.5 C-5.0010348 10.37293041 -4.83708487 6.92017557 -4.4375 3.5 C-2.4375 0.5 -2.4375 0.5 0 0 Z M-0.4375 2.5 C-1.64311184 3.48267859 -1.64311184 3.48267859 -1.53515625 5.34765625 C-1.52355469 6.07855469 -1.51195312 6.80945313 -1.5 7.5625 C-1.479375 8.861875 -1.45875 10.16125 -1.4375 11.5 C-0.4475 11.5 0.5425 11.5 1.5625 11.5 C2.89898017 10.38898816 2.89898017 10.38898816 2.6875 7.5625 C2.77575664 4.58454272 2.77575664 4.58454272 1.5625 2.5 C0.9025 2.5 0.2425 2.5 -0.4375 2.5 Z " fill="#FEFEFE" transform="translate(799.4375,171.5)"/>
<path d="M0 0 C1.2375 0.1546875 1.2375 0.1546875 2.5 0.3125 C5.03686376 4.11779564 5.09355135 6.85159062 4.5 11.3125 C3.3125 13.375 3.3125 13.375 1.5 14.3125 C-1.0625 14.25 -1.0625 14.25 -3.5 13.3125 C-5.73503918 10.67109006 -5.49036332 9.17276815 -5.25 5.6875 C-4.39609983 1.84494925 -4.00795994 0.50099499 0 0 Z M-1.5 2.3125 C-2.89431504 5.10113007 -2.75660094 7.23328868 -2.5 10.3125 C-1.015 11.3025 -1.015 11.3025 0.5 12.3125 C1.70561184 11.32982141 1.70561184 11.32982141 1.59765625 9.46484375 C1.58605469 8.73394531 1.57445312 8.00304687 1.5625 7.25 C1.541875 5.950625 1.52125 4.65125 1.5 3.3125 C0.51 2.9825 -0.48 2.6525 -1.5 2.3125 Z " fill="#FEFEFE" transform="translate(762.5,171.6875)"/>
<path d="M0 0 C2.5625 0.5 2.5625 0.5 4.4375 2.5625 C5.87316817 6.31118911 5.51011602 8.63664239 4.5625 12.5 C3.9025 13.16 3.2425 13.82 2.5625 14.5 C-0.5 14.25 -0.5 14.25 -3.4375 13.5 C-5.0010348 10.37293041 -4.83708487 6.92017557 -4.4375 3.5 C-2.4375 0.5 -2.4375 0.5 0 0 Z M-0.4375 2.5 C-1.64311184 3.48267859 -1.64311184 3.48267859 -1.53515625 5.34765625 C-1.52355469 6.07855469 -1.51195312 6.80945313 -1.5 7.5625 C-1.479375 8.861875 -1.45875 10.16125 -1.4375 11.5 C-0.4475 11.5 0.5425 11.5 1.5625 11.5 C2.89898017 10.38898816 2.89898017 10.38898816 2.6875 7.5625 C2.77575664 4.58454272 2.77575664 4.58454272 1.5625 2.5 C0.9025 2.5 0.2425 2.5 -0.4375 2.5 Z " fill="#FEFEFE" transform="translate(523.4375,171.5)"/>
<path d="M0 0 C1.2375 0.1546875 1.2375 0.1546875 2.5 0.3125 C5.03686376 4.11779564 5.09355135 6.85159062 4.5 11.3125 C3.3125 13.375 3.3125 13.375 1.5 14.3125 C-1.0625 14.25 -1.0625 14.25 -3.5 13.3125 C-5.73503918 10.67109006 -5.49036332 9.17276815 -5.25 5.6875 C-4.39609983 1.84494925 -4.00795994 0.50099499 0 0 Z M-1.5 2.3125 C-2.89431504 5.10113007 -2.75660094 7.23328868 -2.5 10.3125 C-1.015 11.3025 -1.015 11.3025 0.5 12.3125 C1.70561184 11.32982141 1.70561184 11.32982141 1.59765625 9.46484375 C1.58605469 8.73394531 1.57445312 8.00304687 1.5625 7.25 C1.541875 5.950625 1.52125 4.65125 1.5 3.3125 C0.51 2.9825 -0.48 2.6525 -1.5 2.3125 Z " fill="#FEFEFE" transform="translate(252.5,171.6875)"/>
<path d="M0 0 C2.5625 0.5 2.5625 0.5 4.4375 2.5625 C5.87316817 6.31118911 5.51011602 8.63664239 4.5625 12.5 C3.9025 13.16 3.2425 13.82 2.5625 14.5 C-0.5 14.25 -0.5 14.25 -3.4375 13.5 C-5.0010348 10.37293041 -4.83708487 6.92017557 -4.4375 3.5 C-2.4375 0.5 -2.4375 0.5 0 0 Z M-0.4375 2.5 C-1.64311184 3.48267859 -1.64311184 3.48267859 -1.53515625 5.34765625 C-1.52355469 6.07855469 -1.51195312 6.80945313 -1.5 7.5625 C-1.479375 8.861875 -1.45875 10.16125 -1.4375 11.5 C-0.4475 11.5 0.5425 11.5 1.5625 11.5 C2.89898017 10.38898816 2.89898017 10.38898816 2.6875 7.5625 C2.77575664 4.58454272 2.77575664 4.58454272 1.5625 2.5 C0.9025 2.5 0.2425 2.5 -0.4375 2.5 Z " fill="#FEFEFE" transform="translate(151.4375,171.5)"/>
<path d="M0 0 C2.9375 0.375 2.9375 0.375 6 1 C7.52846661 4.05693322 7.23242445 6.62984547 7 10 C5.5 12.4375 5.5 12.4375 4 14 C1.625 13.6875 1.625 13.6875 -1 13 C-3.32579101 9.51131349 -3.41865457 8.10281481 -3 4 C-1.5 1.625 -1.5 1.625 0 0 Z M1 2 C-0.39431504 4.78863007 -0.25660094 6.92078868 0 10 C1.485 10.99 1.485 10.99 3 12 C4.20561184 11.01732141 4.20561184 11.01732141 4.09765625 9.15234375 C4.08605469 8.42144531 4.07445312 7.69054687 4.0625 6.9375 C4.041875 5.638125 4.02125 4.33875 4 3 C3.01 2.67 2.02 2.34 1 2 Z " fill="#FEFEFE" transform="translate(873,172)"/>
<path d="M0 0 C2.9375 0.375 2.9375 0.375 6 1 C7.52846661 4.05693322 7.23242445 6.62984547 7 10 C5.5 12.4375 5.5 12.4375 4 14 C1.625 13.6875 1.625 13.6875 -1 13 C-3.32579101 9.51131349 -3.41865457 8.10281481 -3 4 C-1.5 1.625 -1.5 1.625 0 0 Z M1 2 C-0.39431504 4.78863007 -0.25660094 6.92078868 0 10 C1.485 10.99 1.485 10.99 3 12 C4.20561184 11.01732141 4.20561184 11.01732141 4.09765625 9.15234375 C4.08605469 8.42144531 4.07445312 7.69054687 4.0625 6.9375 C4.041875 5.638125 4.02125 4.33875 4 3 C3.01 2.67 2.02 2.34 1 2 Z " fill="#FEFEFE" transform="translate(735,172)"/>
<path d="M0 0 C2.9375 0.375 2.9375 0.375 6 1 C7.52846661 4.05693322 7.23242445 6.62984547 7 10 C5.5 12.4375 5.5 12.4375 4 14 C1.625 13.6875 1.625 13.6875 -1 13 C-3.32579101 9.51131349 -3.41865457 8.10281481 -3 4 C-1.5 1.625 -1.5 1.625 0 0 Z M1 2 C-0.39431504 4.78863007 -0.25660094 6.92078868 0 10 C1.485 10.99 1.485 10.99 3 12 C4.20561184 11.01732141 4.20561184 11.01732141 4.09765625 9.15234375 C4.08605469 8.42144531 4.07445312 7.69054687 4.0625 6.9375 C4.041875 5.638125 4.02125 4.33875 4 3 C3.01 2.67 2.02 2.34 1 2 Z " fill="#FEFEFE" transform="translate(225,172)"/>
<path d="M0 0 C2.9375 0.375 2.9375 0.375 6 1 C7.52846661 4.05693322 7.23242445 6.62984547 7 10 C5.5 12.4375 5.5 12.4375 4 14 C1.625 13.6875 1.625 13.6875 -1 13 C-3.32579101 9.51131349 -3.41865457 8.10281481 -3 4 C-1.5 1.625 -1.5 1.625 0 0 Z M1 2 C-0.38908639 3.17110184 -0.38908639 3.17110184 -0.25 6.4375 C-0.1675 7.613125 -0.085 8.78875 0 10 C1.485 10.99 1.485 10.99 3 12 C4.20561184 11.01732141 4.20561184 11.01732141 4.09765625 9.15234375 C4.08605469 8.42144531 4.07445312 7.69054687 4.0625 6.9375 C4.041875 5.638125 4.02125 4.33875 4 3 C3.01 2.67 2.02 2.34 1 2 Z " fill="#FEFEFE" transform="translate(597,172)"/>
<path d="M0 0 C2.5 -0.3125 2.5 -0.3125 5 0 C7.63326457 2.63326457 7.71180635 4.32553101 8 8 C6.64516129 12.35483871 6.64516129 12.35483871 5 14 C2.5625 14.25 2.5625 14.25 0 14 C-1.99825961 11.00261059 -2.27550398 10.36652492 -2.25 7 C-2.25515625 6.319375 -2.2603125 5.63875 -2.265625 4.9375 C-2 3 -2 3 0 0 Z M2 2 C0.17339803 6.12148343 0.17339803 6.12148343 0.875 10.375 C1.24625 10.91125 1.6175 11.4475 2 12 C2.99 11.34 3.98 10.68 5 10 C5.5 7 5.5 7 5 4 C4.01 3.34 3.02 2.68 2 2 Z " fill="#FEFEFE" transform="translate(496,172)"/>
<path d="M0 0 C2.5 0.25 2.5 0.25 4.5 2.25 C4.765625 4.5625 4.765625 4.5625 4.75 7.25 C4.75515625 8.136875 4.7603125 9.02375 4.765625 9.9375 C4.5 12.25 4.5 12.25 2.5 14.25 C0 14.5 0 14.5 -2.5 14.25 C-4.5 12.25 -4.5 12.25 -4.765625 9.9375 C-4.76046875 9.050625 -4.7553125 8.16375 -4.75 7.25 C-4.75515625 6.363125 -4.7603125 5.47625 -4.765625 4.5625 C-4.37662358 1.17589938 -3.36011494 0.33601149 0 0 Z M-0.5 2.25 C-2.86692966 5.09826598 -2.86692966 5.09826598 -2.125 8.4375 C-1.91875 9.365625 -1.7125 10.29375 -1.5 11.25 C-0.51 11.25 0.48 11.25 1.5 11.25 C2.26716851 8.39921909 2.26716851 8.39921909 2.5 5.25 C1.18681738 3.35041919 1.18681738 3.35041919 -0.5 2.25 Z " fill="#FEFEFE" transform="translate(465.5,171.75)"/>
<path d="M0 0 C1.2684375 0.12375 1.2684375 0.12375 2.5625 0.25 C4.56075961 3.24738941 4.83800398 3.88347508 4.8125 7.25 C4.81765625 7.930625 4.8228125 8.61125 4.828125 9.3125 C4.5625 11.25 4.5625 11.25 2.5625 14.25 C0.0625 14.5625 0.0625 14.5625 -2.4375 14.25 C-5.07076457 11.61673543 -5.14930635 9.92446899 -5.4375 6.25 C-3.60818864 0.37007063 -3.60818864 0.37007063 0 0 Z M-0.4375 2.25 C-2.74412599 4.13659875 -2.74412599 4.13659875 -2.75 7.25 C-2.646875 8.24 -2.54375 9.23 -2.4375 10.25 C-0.9525 11.24 -0.9525 11.24 0.5625 12.25 C2.38910197 8.12851657 2.38910197 8.12851657 1.6875 3.875 C1.31625 3.33875 0.945 2.8025 0.5625 2.25 C0.2325 2.25 -0.0975 2.25 -0.4375 2.25 Z " fill="#FEFEFE" transform="translate(415.4375,171.75)"/>
<path d="M0 0 C2.4375 0.875 2.4375 0.875 4.4375 3.875 C4.81228243 7.39795483 4.84877245 9.22381863 2.9375 12.25 C2.4425 12.78625 1.9475 13.3225 1.4375 13.875 C-0.9375 13.5625 -0.9375 13.5625 -3.5625 12.875 C-6.02574069 9.18013897 -5.95241688 7.24206908 -5.5625 2.875 C-3.91229442 0.0957064 -3.2342745 -0.15776949 0 0 Z M-1.5625 1.875 C-2.76811184 2.85767859 -2.76811184 2.85767859 -2.66015625 4.72265625 C-2.64855469 5.45355469 -2.63695312 6.18445313 -2.625 6.9375 C-2.604375 8.236875 -2.58375 9.53625 -2.5625 10.875 C-1.5725 10.875 -0.5825 10.875 0.4375 10.875 C1.85327477 9.69075674 1.85327477 9.69075674 1.5 6.3125 C1.479375 5.178125 1.45875 4.04375 1.4375 2.875 C0.4475 2.545 -0.5425 2.215 -1.5625 1.875 Z " fill="#FEFEFE" transform="translate(315.5625,172.125)"/>
<path d="M0 0 C2.4375 0.875 2.4375 0.875 4.4375 3.875 C4.81228243 7.39795483 4.84877245 9.22381863 2.9375 12.25 C2.4425 12.78625 1.9475 13.3225 1.4375 13.875 C-0.9375 13.5625 -0.9375 13.5625 -3.5625 12.875 C-6.02574069 9.18013897 -5.95241688 7.24206908 -5.5625 2.875 C-3.91229442 0.0957064 -3.2342745 -0.15776949 0 0 Z M-1.5625 1.875 C-2.76811184 2.85767859 -2.76811184 2.85767859 -2.66015625 4.72265625 C-2.64855469 5.45355469 -2.63695312 6.18445313 -2.625 6.9375 C-2.604375 8.236875 -2.58375 9.53625 -2.5625 10.875 C-1.5725 10.875 -0.5825 10.875 0.4375 10.875 C1.85327477 9.69075674 1.85327477 9.69075674 1.5 6.3125 C1.479375 5.178125 1.45875 4.04375 1.4375 2.875 C0.4475 2.545 -0.5425 2.215 -1.5625 1.875 Z " fill="#FEFEFE" transform="translate(177.5625,172.125)"/>
<path d="M0 0 C2.5 0.25 2.5 0.25 4.5 2.25 C4.765625 4.5625 4.765625 4.5625 4.75 7.25 C4.75515625 8.136875 4.7603125 9.02375 4.765625 9.9375 C4.5 12.25 4.5 12.25 2.5 14.25 C0 14.5625 0 14.5625 -2.5 14.25 C-4.58940868 11.11588698 -4.77364412 10.27549528 -4.75 6.6875 C-4.75515625 5.90246094 -4.7603125 5.11742187 -4.765625 4.30859375 C-4.34659794 1.06113402 -3.17448383 0.31744838 0 0 Z M-0.5 2.25 C-2.86692966 5.09826598 -2.86692966 5.09826598 -2.125 8.4375 C-1.91875 9.365625 -1.7125 10.29375 -1.5 11.25 C-0.51 11.25 0.48 11.25 1.5 11.25 C2.26716851 8.39921909 2.26716851 8.39921909 2.5 5.25 C1.18681738 3.35041919 1.18681738 3.35041919 -0.5 2.25 Z " fill="#FEFEFE" transform="translate(862.5,171.75)"/>
<path d="M0 0 C2.5 0.25 2.5 0.25 4.5 2.25 C4.765625 4.30859375 4.765625 4.30859375 4.75 6.6875 C4.75515625 7.46996094 4.7603125 8.25242188 4.765625 9.05859375 C4.5 11.25 4.5 11.25 2.5 14.25 C0 14.5625 0 14.5625 -2.5 14.25 C-4.5 12.25 -4.5 12.25 -4.765625 9.9375 C-4.76046875 9.050625 -4.7553125 8.16375 -4.75 7.25 C-4.75515625 6.363125 -4.7603125 5.47625 -4.765625 4.5625 C-4.37662358 1.17589938 -3.36011494 0.33601149 0 0 Z M-0.5 2.25 C-2.86692966 5.09826598 -2.86692966 5.09826598 -2.125 8.4375 C-1.91875 9.365625 -1.7125 10.29375 -1.5 11.25 C-0.51 11.25 0.48 11.25 1.5 11.25 C2.26716851 8.39921909 2.26716851 8.39921909 2.5 5.25 C1.18681738 3.35041919 1.18681738 3.35041919 -0.5 2.25 Z " fill="#FEFEFE" transform="translate(837.5,171.75)"/>
<path d="M0 0 C2.5 0.25 2.5 0.25 4.5 2.25 C4.765625 4.30859375 4.765625 4.30859375 4.75 6.6875 C4.75515625 7.46996094 4.7603125 8.25242188 4.765625 9.05859375 C4.5 11.25 4.5 11.25 2.5 14.25 C0 14.5625 0 14.5625 -2.5 14.25 C-4.5 12.25 -4.5 12.25 -4.765625 9.9375 C-4.76046875 9.050625 -4.7553125 8.16375 -4.75 7.25 C-4.75515625 6.363125 -4.7603125 5.47625 -4.765625 4.5625 C-4.37662358 1.17589938 -3.36011494 0.33601149 0 0 Z M-0.5 2.25 C-2.86692966 5.09826598 -2.86692966 5.09826598 -2.125 8.4375 C-1.91875 9.365625 -1.7125 10.29375 -1.5 11.25 C-0.51 11.25 0.48 11.25 1.5 11.25 C2.26716851 8.39921909 2.26716851 8.39921909 2.5 5.25 C1.18681738 3.35041919 1.18681738 3.35041919 -0.5 2.25 Z " fill="#FEFEFE" transform="translate(699.5,171.75)"/>
<path d="M0 0 C2.5 -0.3125 2.5 -0.3125 5 0 C7.63326457 2.63326457 7.71180635 4.32553101 8 8 C7.375 10.8125 7.375 10.8125 6 13 C3.5625 14 3.5625 14 1 14 C-0.8125 13.0625 -0.8125 13.0625 -2 11 C-2.59355135 6.53909062 -2.53686376 3.80529564 0 0 Z M2 2 C0.17339803 6.12148343 0.17339803 6.12148343 0.875 10.375 C1.24625 10.91125 1.6175 11.4475 2 12 C2.99 11.34 3.98 10.68 5 10 C5.5 7 5.5 7 5 4 C4.01 3.34 3.02 2.68 2 2 Z " fill="#FEFEFE" transform="translate(634,172)"/>
<path d="M0 0 C2.5 0.25 2.5 0.25 4.5 2.25 C4.765625 4.5625 4.765625 4.5625 4.75 7.25 C4.75515625 8.136875 4.7603125 9.02375 4.765625 9.9375 C4.5 12.25 4.5 12.25 2.5 14.25 C0 14.5625 0 14.5625 -2.5 14.25 C-4.58940868 11.11588698 -4.77364412 10.27549528 -4.75 6.6875 C-4.75515625 5.90246094 -4.7603125 5.11742187 -4.765625 4.30859375 C-4.34659794 1.06113402 -3.17448383 0.31744838 0 0 Z M-0.5 2.25 C-2.86692966 5.09826598 -2.86692966 5.09826598 -2.125 8.4375 C-1.91875 9.365625 -1.7125 10.29375 -1.5 11.25 C-0.51 11.25 0.48 11.25 1.5 11.25 C2.26716851 8.39921909 2.26716851 8.39921909 2.5 5.25 C1.18681738 3.35041919 1.18681738 3.35041919 -0.5 2.25 Z " fill="#FEFEFE" transform="translate(586.5,171.75)"/>
<path d="M0 0 C2.32579101 3.48868651 2.41865457 4.89718519 2 9 C0.5 11.375 0.5 11.375 -1 13 C-3.375 12.6875 -3.375 12.6875 -6 12 C-8.20080053 8.6987992 -8.21218749 8.10898842 -7.75 4.375 C-7.66234375 3.57835937 -7.5746875 2.78171875 -7.484375 1.9609375 C-7.24460937 0.99027344 -7.24460937 0.99027344 -7 0 C-4.27584084 -1.36207958 -2.87220643 -0.86166193 0 0 Z M-4 1 C-5.20561184 1.98267859 -5.20561184 1.98267859 -5.09765625 3.84765625 C-5.08605469 4.57855469 -5.07445312 5.30945313 -5.0625 6.0625 C-5.041875 7.361875 -5.02125 8.66125 -5 10 C-4.01 10 -3.02 10 -2 10 C-0.58422523 8.81575674 -0.58422523 8.81575674 -0.9375 5.4375 C-0.958125 4.303125 -0.97875 3.16875 -1 2 C-1.99 1.67 -2.98 1.34 -4 1 Z " fill="#FEFEFE" transform="translate(456,173)"/>
<path d="M0 0 C2.97 0.495 2.97 0.495 6 1 C7.45295405 9.19256018 7.45295405 9.19256018 5.5625 12.5625 C5.046875 13.036875 4.53125 13.51125 4 14 C1.625 13.6875 1.625 13.6875 -1 13 C-3.32579101 9.51131349 -3.41865457 8.10281481 -3 4 C-1.5 1.625 -1.5 1.625 0 0 Z M1 2 C-0.38908639 3.17110184 -0.38908639 3.17110184 -0.25 6.4375 C-0.1675 7.613125 -0.085 8.78875 0 10 C1.485 10.99 1.485 10.99 3 12 C4.20561184 11.01732141 4.20561184 11.01732141 4.09765625 9.15234375 C4.08605469 8.42144531 4.07445312 7.69054687 4.0625 6.9375 C4.041875 5.638125 4.02125 4.33875 4 3 C3.01 2.67 2.02 2.34 1 2 Z " fill="#FEFEFE" transform="translate(338,172)"/>
<path d="M0 0 C2.5 0.25 2.5 0.25 4.5 2.25 C4.765625 4.30859375 4.765625 4.30859375 4.75 6.6875 C4.75515625 7.46996094 4.7603125 8.25242188 4.765625 9.05859375 C4.5 11.25 4.5 11.25 2.5 14.25 C0 14.5625 0 14.5625 -2.5 14.25 C-4.5 12.25 -4.5 12.25 -4.765625 9.9375 C-4.76046875 9.050625 -4.7553125 8.16375 -4.75 7.25 C-4.75515625 6.363125 -4.7603125 5.47625 -4.765625 4.5625 C-4.37662358 1.17589938 -3.36011494 0.33601149 0 0 Z M-0.5 2.25 C-2.86692966 5.09826598 -2.86692966 5.09826598 -2.125 8.4375 C-1.91875 9.365625 -1.7125 10.29375 -1.5 11.25 C-0.51 11.25 0.48 11.25 1.5 11.25 C2.26716851 8.39921909 2.26716851 8.39921909 2.5 5.25 C1.18681738 3.35041919 1.18681738 3.35041919 -0.5 2.25 Z " fill="#FEFEFE" transform="translate(327.5,171.75)"/>
<path d="M0 0 C1.2684375 0.12375 1.2684375 0.12375 2.5625 0.25 C5.09936376 4.05529564 5.15605135 6.78909062 4.5625 11.25 C3.375 13.3125 3.375 13.3125 1.5625 14.25 C-1.125 13.9375 -1.125 13.9375 -3.4375 13.25 C-5.64675553 6.99044266 -5.64675553 6.99044266 -4.625 3.375 C-2.9055 0.298 -2.9055 0.298 0 0 Z M-0.4375 2.25 C-2.74412599 4.13659875 -2.74412599 4.13659875 -2.75 7.25 C-2.646875 8.24 -2.54375 9.23 -2.4375 10.25 C-0.9525 11.24 -0.9525 11.24 0.5625 12.25 C2.38910197 8.12851657 2.38910197 8.12851657 1.6875 3.875 C1.31625 3.33875 0.945 2.8025 0.5625 2.25 C0.2325 2.25 -0.0975 2.25 -0.4375 2.25 Z " fill="#FEFEFE" transform="translate(277.4375,171.75)"/>
<path d="M0 0 C2.5 0.25 2.5 0.25 4.5 2.25 C4.765625 4.5625 4.765625 4.5625 4.75 7.25 C4.75515625 8.136875 4.7603125 9.02375 4.765625 9.9375 C4.5 12.25 4.5 12.25 2.5 14.25 C0 14.5625 0 14.5625 -2.5 14.25 C-4.58940868 11.11588698 -4.77364412 10.27549528 -4.75 6.6875 C-4.75515625 5.90246094 -4.7603125 5.11742187 -4.765625 4.30859375 C-4.34659794 1.06113402 -3.17448383 0.31744838 0 0 Z M-0.5 2.25 C-2.86692966 5.09826598 -2.86692966 5.09826598 -2.125 8.4375 C-1.91875 9.365625 -1.7125 10.29375 -1.5 11.25 C-0.51 11.25 0.48 11.25 1.5 11.25 C2.26716851 8.39921909 2.26716851 8.39921909 2.5 5.25 C1.18681738 3.35041919 1.18681738 3.35041919 -0.5 2.25 Z " fill="#FEFEFE" transform="translate(214.5,171.75)"/>
<path d="M0 0 C2.5 -0.3125 2.5 -0.3125 5 0 C7.63326457 2.63326457 7.71180635 4.32553101 8 8 C7.375 10.8125 7.375 10.8125 6 13 C3.5625 14 3.5625 14 1 14 C-0.8125 13.0625 -0.8125 13.0625 -2 11 C-2.59355135 6.53909062 -2.53686376 3.80529564 0 0 Z M2 2 C0.17339803 6.12148343 0.17339803 6.12148343 0.875 10.375 C1.24625 10.91125 1.6175 11.4475 2 12 C2.99 11.34 3.98 10.68 5 10 C5.5 7 5.5 7 5 4 C4.01 3.34 3.02 2.68 2 2 Z " fill="#FEFEFE" transform="translate(124,172)"/>
<path d="M0 0 C2.5 0.25 2.5 0.25 4.5 2.25 C4.765625 4.5625 4.765625 4.5625 4.75 7.25 C4.75515625 8.136875 4.7603125 9.02375 4.765625 9.9375 C4.5 12.25 4.5 12.25 2.5 14.25 C0 14.5625 0 14.5625 -2.5 14.25 C-4.58940868 11.11588698 -4.77364412 10.27549528 -4.75 6.6875 C-4.75515625 5.90246094 -4.7603125 5.11742187 -4.765625 4.30859375 C-4.34659794 1.06113402 -3.17448383 0.31744838 0 0 Z M-0.5 2.25 C-2.86692966 5.09826598 -2.86692966 5.09826598 -2.125 8.4375 C-1.91875 9.365625 -1.7125 10.29375 -1.5 11.25 C-0.51 11.25 0.48 11.25 1.5 11.25 C2.26716851 8.39921909 2.26716851 8.39921909 2.5 5.25 C1.18681738 3.35041919 1.18681738 3.35041919 -0.5 2.25 Z " fill="#FEFEFE" transform="translate(76.5,171.75)"/>
<path d="M0 0 C1.2375 0.1546875 1.2375 0.1546875 2.5 0.3125 C4.49825961 3.30988941 4.77550398 3.94597508 4.75 7.3125 C4.75515625 7.993125 4.7603125 8.67375 4.765625 9.375 C4.5 11.3125 4.5 11.3125 2.5 14.3125 C0 14.625 0 14.625 -2.5 14.3125 C-4.5 12.3125 -4.5 12.3125 -4.765625 10 C-4.76046875 9.113125 -4.7553125 8.22625 -4.75 7.3125 C-4.75515625 6.425625 -4.7603125 5.53875 -4.765625 4.625 C-4.37679717 1.23991063 -3.34120123 0.41765015 0 0 Z M-0.5 2.3125 C-2.80662599 4.19909875 -2.80662599 4.19909875 -2.8125 7.3125 C-2.709375 8.3025 -2.60625 9.2925 -2.5 10.3125 C-1.015 11.3025 -1.015 11.3025 0.5 12.3125 C2.07035335 9.81840939 2.5274945 8.60806584 2.25 5.625 C2.0025 4.861875 1.755 4.09875 1.5 3.3125 C0.84 2.9825 0.18 2.6525 -0.5 2.3125 Z " fill="#FEFEFE" transform="translate(674.5,171.6875)"/>
<path d="M0 0 C2.375 0.3125 2.375 0.3125 5 1 C7.32579101 4.48868651 7.41865457 5.89718519 7 10 C5.5 12.375 5.5 12.375 4 14 C1.625 13.6875 1.625 13.6875 -1 13 C-3.32579101 9.51131349 -3.41865457 8.10281481 -3 4 C-1.5 1.625 -1.5 1.625 0 0 Z M1 2 C-0.20561184 2.98267859 -0.20561184 2.98267859 -0.09765625 4.84765625 C-0.08605469 5.57855469 -0.07445312 6.30945313 -0.0625 7.0625 C-0.041875 8.361875 -0.02125 9.66125 0 11 C0.99 11.495 0.99 11.495 2 12 C2.66 11.67 3.32 11.34 4 11 C4 8.36 4 5.72 4 3 C3.01 2.67 2.02 2.34 1 2 Z " fill="#FEFEFE" transform="translate(572,172)"/>
<path d="M0 0 C1.2375 0.1546875 1.2375 0.1546875 2.5 0.3125 C4.49825961 3.30988941 4.77550398 3.94597508 4.75 7.3125 C4.75515625 7.993125 4.7603125 8.67375 4.765625 9.375 C4.5 11.3125 4.5 11.3125 2.5 14.3125 C0 14.625 0 14.625 -2.5 14.3125 C-4.5 12.3125 -4.5 12.3125 -4.765625 10 C-4.76046875 9.113125 -4.7553125 8.22625 -4.75 7.3125 C-4.75515625 6.425625 -4.7603125 5.53875 -4.765625 4.625 C-4.37679717 1.23991063 -3.34120123 0.41765015 0 0 Z M-0.5 2.3125 C-1.16 2.9725 -1.82 3.6325 -2.5 4.3125 C-2.17673447 7.90929066 -2.17673447 7.90929066 -1.5 11.3125 C-0.51 11.3125 0.48 11.3125 1.5 11.3125 C2.26716851 8.46171909 2.26716851 8.46171909 2.5 5.3125 C1.18681738 3.41291919 1.18681738 3.41291919 -0.5 2.3125 Z " fill="#FEFEFE" transform="translate(440.5,171.6875)"/>
<path d="M0 0 C2.5 -0.3125 2.5 -0.3125 5 0 C7 2 7 2 7.265625 4.3125 C7.26046875 5.199375 7.2553125 6.08625 7.25 7 C7.25515625 7.886875 7.2603125 8.77375 7.265625 9.6875 C7 12 7 12 5 14 C2.5 14.3125 2.5 14.3125 0 14 C-1.99825961 11.00261059 -2.27550398 10.36652492 -2.25 7 C-2.25515625 6.319375 -2.2603125 5.63875 -2.265625 4.9375 C-2 3 -2 3 0 0 Z M2 2 C-0.36692966 4.84826598 -0.36692966 4.84826598 0.375 8.1875 C0.58125 9.115625 0.7875 10.04375 1 11 C1.99 11 2.98 11 4 11 C5.32745166 9.88741409 5.32745166 9.88741409 5.25 7.0625 C5.12625 5.5465625 5.12625 5.5465625 5 4 C4.01 3.34 3.02 2.68 2 2 Z " fill="#FEFEFE" transform="translate(375,172)"/>
<path d="M0 0 C2.5 -0.3125 2.5 -0.3125 5 0 C7 2 7 2 7.265625 4.3125 C7.26046875 5.199375 7.2553125 6.08625 7.25 7 C7.25515625 7.886875 7.2603125 8.77375 7.265625 9.6875 C7 12 7 12 5 14 C2.5 14.3125 2.5 14.3125 0 14 C-1.99825961 11.00261059 -2.27550398 10.36652492 -2.25 7 C-2.25515625 6.319375 -2.2603125 5.63875 -2.265625 4.9375 C-2 3 -2 3 0 0 Z M2 2 C-0.36692966 4.84826598 -0.36692966 4.84826598 0.375 8.1875 C0.58125 9.115625 0.7875 10.04375 1 11 C1.99 11 2.98 11 4 11 C5.32745166 9.88741409 5.32745166 9.88741409 5.25 7.0625 C5.12625 5.5465625 5.12625 5.5465625 5 4 C4.01 3.34 3.02 2.68 2 2 Z " fill="#FEFEFE" transform="translate(885,172)"/>
<path d="M0 0 C2.5 -0.3125 2.5 -0.3125 5 0 C7 2 7 2 7.265625 4.3125 C7.26046875 5.199375 7.2553125 6.08625 7.25 7 C7.25515625 7.886875 7.2603125 8.77375 7.265625 9.6875 C7 12 7 12 5 14 C2.5 14.3125 2.5 14.3125 0 14 C-1.99825961 11.00261059 -2.27550398 10.36652492 -2.25 7 C-2.25515625 6.319375 -2.2603125 5.63875 -2.265625 4.9375 C-2 3 -2 3 0 0 Z M2 2 C-0.36692966 4.84826598 -0.36692966 4.84826598 0.375 8.1875 C0.58125 9.115625 0.7875 10.04375 1 11 C1.99 11 2.98 11 4 11 C5.32745166 9.88741409 5.32745166 9.88741409 5.25 7.0625 C5.12625 5.5465625 5.12625 5.5465625 5 4 C4.01 3.34 3.02 2.68 2 2 Z " fill="#FEFEFE" transform="translate(747,172)"/>
<path d="M0 0 C1.2375 0.1546875 1.2375 0.1546875 2.5 0.3125 C4.49825961 3.30988941 4.77550398 3.94597508 4.75 7.3125 C4.75515625 7.993125 4.7603125 8.67375 4.765625 9.375 C4.5 11.3125 4.5 11.3125 2.5 14.3125 C0 14.625 0 14.625 -2.5 14.3125 C-4.5 12.3125 -4.5 12.3125 -4.765625 10 C-4.76046875 9.113125 -4.7553125 8.22625 -4.75 7.3125 C-4.75515625 6.425625 -4.7603125 5.53875 -4.765625 4.625 C-4.37679717 1.23991063 -3.34120123 0.41765015 0 0 Z M-0.5 2.3125 C-2.80662599 4.19909875 -2.80662599 4.19909875 -2.8125 7.3125 C-2.709375 8.3025 -2.60625 9.2925 -2.5 10.3125 C-1.015 11.3025 -1.015 11.3025 0.5 12.3125 C2.83775029 9.47676737 2.83775029 9.47676737 2.25 6.1875 C2.0025 5.23875 1.755 4.29 1.5 3.3125 C0.84 2.9825 0.18 2.6525 -0.5 2.3125 Z " fill="#FEFEFE" transform="translate(164.5,171.6875)"/>
<path d="M0 0 C2.5 -0.3125 2.5 -0.3125 5 0 C7 2 7 2 7.265625 4.3125 C7.26046875 5.199375 7.2553125 6.08625 7.25 7 C7.25515625 7.886875 7.2603125 8.77375 7.265625 9.6875 C7 12 7 12 5 14 C2.5 14.3125 2.5 14.3125 0 14 C-1.99825961 11.00261059 -2.27550398 10.36652492 -2.25 7 C-2.25515625 6.319375 -2.2603125 5.63875 -2.265625 4.9375 C-2 3 -2 3 0 0 Z M2 2 C-0.36692966 4.84826598 -0.36692966 4.84826598 0.375 8.1875 C0.58125 9.115625 0.7875 10.04375 1 11 C1.99 11 2.98 11 4 11 C5.32745166 9.88741409 5.32745166 9.88741409 5.25 7.0625 C5.12625 5.5465625 5.12625 5.5465625 5 4 C4.01 3.34 3.02 2.68 2 2 Z " fill="#FEFEFE" transform="translate(99,172)"/>
<path d="M0 0 C1.65 0 3.3 0 5 0 C5 4.62 5 9.24 5 14 C4.01 14 3.02 14 2 14 C2 10.04 2 6.08 2 2 C1.34 2 0.68 2 0 2 C0 1.34 0 0.68 0 0 Z " fill="#FEFEFE" transform="translate(847,172)"/>
<path d="M0 0 C1.65 0 3.3 0 5 0 C5 4.62 5 9.24 5 14 C4.01 14 3.02 14 2 14 C2 10.04 2 6.08 2 2 C1.34 2 0.68 2 0 2 C0 1.34 0 0.68 0 0 Z " fill="#FEFEFE" transform="translate(709,172)"/>
<path d="M0 0 C1.65 0 3.3 0 5 0 C5 4.62 5 9.24 5 14 C4.01 14 3.02 14 2 14 C2 10.04 2 6.08 2 2 C1.34 2 0.68 2 0 2 C0 1.34 0 0.68 0 0 Z " fill="#FEFEFE" transform="translate(621,172)"/>
<path d="M0 0 C1.65 0 3.3 0 5 0 C5 4.62 5 9.24 5 14 C4.01 14 3.02 14 2 14 C2 10.04 2 6.08 2 2 C1.34 2 0.68 2 0 2 C0 1.34 0 0.68 0 0 Z " fill="#FEFEFE" transform="translate(508,172)"/>
<path d="M0 0 C1.65 0 3.3 0 5 0 C5 4.62 5 9.24 5 14 C4.01 14 3.02 14 2 14 C2 10.04 2 6.08 2 2 C1.34 2 0.68 2 0 2 C0 1.34 0 0.68 0 0 Z " fill="#FEFEFE" transform="translate(387,172)"/>
<path d="M0 0 C1.65 0 3.3 0 5 0 C5 4.62 5 9.24 5 14 C4.01 14 3.02 14 2 14 C2 10.04 2 6.08 2 2 C1.34 2 0.68 2 0 2 C0 1.34 0 0.68 0 0 Z " fill="#FEFEFE" transform="translate(362,172)"/>
<path d="M0 0 C1.65 0 3.3 0 5 0 C5 4.62 5 9.24 5 14 C4.01 14 3.02 14 2 14 C2 10.04 2 6.08 2 2 C1.34 2 0.68 2 0 2 C0 1.34 0 0.68 0 0 Z " fill="#FEFEFE" transform="translate(199,172)"/>
<path d="M0 0 C1.65 0 3.3 0 5 0 C5 4.62 5 9.24 5 14 C4.01 14 3.02 14 2 14 C2 10.04 2 6.08 2 2 C1.34 2 0.68 2 0 2 C0 1.34 0 0.68 0 0 Z " fill="#FEFEFE" transform="translate(111,172)"/>
<path d="M0 0 C1.65 0 3.3 0 5 0 C5 4.62 5 9.24 5 14 C4.01 14 3.02 14 2 14 C2 10.04 2 6.08 2 2 C1.34 2 0.68 2 0 2 C0 1.34 0 0.68 0 0 Z " fill="#FEFEFE" transform="translate(86,172)"/>
<path d="M0 0 C1.32 0 2.64 0 4 0 C4 4.62 4 9.24 4 14 C3.01 14 2.02 14 1 14 C1 10.04 1 6.08 1 2 C0.34 1.67 -0.32 1.34 -1 1 C-0.67 0.67 -0.34 0.34 0 0 Z " fill="#FEFEFE" transform="translate(810,172)"/>
<path d="M0 0 C1.32 0 2.64 0 4 0 C4 4.62 4 9.24 4 14 C3.01 14 2.02 14 1 14 C1 10.04 1 6.08 1 2 C0.34 1.67 -0.32 1.34 -1 1 C-0.67 0.67 -0.34 0.34 0 0 Z " fill="#FEFEFE" transform="translate(785,172)"/>
<path d="M0 0 C1.32 0 2.64 0 4 0 C4 4.62 4 9.24 4 14 C3.01 14 2.02 14 1 14 C1 10.04 1 6.08 1 2 C0.34 1.67 -0.32 1.34 -1 1 C-0.67 0.67 -0.34 0.34 0 0 Z " fill="#FEFEFE" transform="translate(534,172)"/>
<path d="M0 0 C1.32 0 2.64 0 4 0 C4 4.62 4 9.24 4 14 C3.01 14 2.02 14 1 14 C1 10.04 1 6.08 1 2 C0.34 1.67 -0.32 1.34 -1 1 C-0.67 0.67 -0.34 0.34 0 0 Z " fill="#FEFEFE" transform="translate(137,172)"/>
<path d="M0 0 C1.32 0 2.64 0 4 0 C4 4.62 4 9.24 4 14 C3.01 13.67 2.02 13.34 1 13 C1 9.37 1 5.74 1 2 C0.34 1.67 -0.32 1.34 -1 1 C-0.67 0.67 -0.34 0.34 0 0 Z " fill="#FEFEFE" transform="translate(300,172)"/>
<path d="M0 0 C1.32 0 2.64 0 4 0 C4 4.62 4 9.24 4 14 C3.34 14 2.68 14 2 14 C2 10.04 2 6.08 2 2 C1.01 1.67 0.02 1.34 -1 1 C-0.67 0.67 -0.34 0.34 0 0 Z " fill="#FEFEFE" transform="translate(772,172)"/>
<path d="M0 0 C1.32 0 2.64 0 4 0 C4 4.62 4 9.24 4 14 C3.34 14 2.68 14 2 14 C2 10.04 2 6.08 2 2 C1.01 1.67 0.02 1.34 -1 1 C-0.67 0.67 -0.34 0.34 0 0 Z " fill="#FDFDFD" transform="translate(722,172)"/>
<path d="M0 0 C1.32 0 2.64 0 4 0 C4 4.62 4 9.24 4 14 C3.34 14 2.68 14 2 14 C2 10.04 2 6.08 2 2 C1.01 1.67 0.02 1.34 -1 1 C-0.67 0.67 -0.34 0.34 0 0 Z " fill="#FDFDFD" transform="translate(659,172)"/>
<path d="M0 0 C1.32 0 2.64 0 4 0 C4 4.62 4 9.24 4 14 C3.34 14 2.68 14 2 14 C2 10.04 2 6.08 2 2 C1.01 1.67 0.02 1.34 -1 1 C-0.67 0.67 -0.34 0.34 0 0 Z " fill="#FEFEFE" transform="translate(609,172)"/>
<path d="M0 0 C1.32 0 2.64 0 4 0 C4 4.62 4 9.24 4 14 C3.34 14 2.68 14 2 14 C2 10.04 2 6.08 2 2 C1.01 1.67 0.02 1.34 -1 1 C-0.67 0.67 -0.34 0.34 0 0 Z " fill="#FEFEFE" transform="translate(559,172)"/>
<path d="M0 0 C1.32 0 2.64 0 4 0 C4 4.62 4 9.24 4 14 C3.34 14 2.68 14 2 14 C2 10.04 2 6.08 2 2 C1.01 1.67 0.02 1.34 -1 1 C-0.67 0.67 -0.34 0.34 0 0 Z " fill="#FDFDFD" transform="translate(425,172)"/>
<path d="M0 0 C1.32 0 2.64 0 4 0 C4 4.62 4 9.24 4 14 C3.34 14 2.68 14 2 14 C2 10.04 2 6.08 2 2 C1.01 1.67 0.02 1.34 -1 1 C-0.67 0.67 -0.34 0.34 0 0 Z " fill="#FDFDFD" transform="translate(400,172)"/>
<path d="M0 0 C1.32 0 2.64 0 4 0 C4 4.62 4 9.24 4 14 C3.34 14 2.68 14 2 14 C2 10.04 2 6.08 2 2 C1.01 1.67 0.02 1.34 -1 1 C-0.67 0.67 -0.34 0.34 0 0 Z " fill="#FDFDFD" transform="translate(350,172)"/>
<path d="M0 0 C1.32 0 2.64 0 4 0 C4 4.62 4 9.24 4 14 C3.34 14 2.68 14 2 14 C2 10.04 2 6.08 2 2 C1.01 1.67 0.02 1.34 -1 1 C-0.67 0.67 -0.34 0.34 0 0 Z " fill="#FDFDFD" transform="translate(287,172)"/>
<path d="M0 0 C1.32 0 2.64 0 4 0 C4 4.62 4 9.24 4 14 C3.34 14 2.68 14 2 14 C2 10.04 2 6.08 2 2 C1.01 1.67 0.02 1.34 -1 1 C-0.67 0.67 -0.34 0.34 0 0 Z " fill="#FDFDFD" transform="translate(262,172)"/>
<path d="M0 0 C1.32 0 2.64 0 4 0 C4 4.62 4 9.24 4 14 C3.34 14 2.68 14 2 14 C2 10.04 2 6.08 2 2 C1.01 1.67 0.02 1.34 -1 1 C-0.67 0.67 -0.34 0.34 0 0 Z " fill="#FEFEFE" transform="translate(237,172)"/>
<path d="M0 0 C1.32 0 2.64 0 4 0 C4 4.62 4 9.24 4 14 C3.34 14 2.68 14 2 14 C2 10.04 2 6.08 2 2 C1.01 1.67 0.02 1.34 -1 1 C-0.67 0.67 -0.34 0.34 0 0 Z " fill="#FDFDFD" transform="translate(187,172)"/>
<path d="M0 0 C1.32 0 2.64 0 4 0 C4 4.62 4 9.24 4 14 C3.34 14 2.68 14 2 14 C2 10.04 2 6.08 2 2 C1.34 2 0.68 2 0 2 C0 1.34 0 0.68 0 0 Z " fill="#FEFEFE" transform="translate(822,172)"/>
<path d="M0 0 C1.32 0 2.64 0 4 0 C4 4.62 4 9.24 4 14 C3.34 14 2.68 14 2 14 C2 10.04 2 6.08 2 2 C1.34 2 0.68 2 0 2 C0 1.34 0 0.68 0 0 Z " fill="#FDFDFD" transform="translate(684,172)"/>
</svg>
