<svg width="210" height="101" viewBox="0 0 210 101" fill="none" xmlns="http://www.w3.org/2000/svg">
<g filter="url(#filter0_f_2085_98487)">
<path d="M49.8251 26.4151C49.752 26.5138 49.6842 26.5958 49.6194 26.6656C48.9345 27.092 47.943 27.7259 47.6539 27.8906C47.2375 28.1281 45.0052 28.7314 44.944 28.7611C44.0055 29.2089 42.4688 29.7111 41.8429 30.2115C41.3035 30.6438 41.2175 33.0596 40.9569 34.6422C40.697 36.2247 40.436 40.4178 40.5141 41.6312C40.5925 42.8445 40.9304 43.8204 41.0349 44.8489C41.1395 45.8775 40.9829 47.0381 41.3997 48.0407C41.8165 49.0429 42.468 51.0996 43.276 52.6558C43.276 52.6558 43.3805 53.3678 43.2499 53.6048C43.1198 53.8423 42.8335 54.0271 42.9376 54.1325C43.0413 54.2374 43.4325 54.3959 43.4846 54.5811C43.5366 54.7655 43.3801 55.5833 43.1714 56.6382C42.9632 57.6931 41.686 61.8076 41.712 62.1505C41.738 62.4933 42.3374 62.6254 42.8067 62.8888C43.276 63.1523 43.4842 63.2844 43.4842 63.4428C43.4842 63.6009 43.2235 64.9986 43.276 65.3415C43.328 65.6847 43.5106 66.5548 43.5106 67.1088C43.5106 67.6623 44.0315 78.0539 44.2913 79.2668C44.5524 80.4802 45.0737 81.9042 45.1518 82.089C45.2195 82.2492 45.4455 82.8077 45.9313 82.8817C45.942 83.4353 45.9049 84.2025 45.6793 84.8594C45.2724 86.0426 44.6623 90.9315 45.018 92.7841C45.374 94.6367 46.289 98.3934 47.052 100.915C47.8146 103.437 48.5263 104.106 48.0174 106.472C47.5097 108.839 47.0008 108.325 47.6621 109.972C48.3235 111.618 49.0749 113.712 49.0852 113.985C49.0968 114.259 49.2381 114.5 49.2381 114.5L54.2208 114.449C54.253 114.258 54.272 114.054 54.2815 113.844C54.2526 114.191 54.2208 114.449 54.2208 114.449H59.2538C59.2538 114.449 60.4679 114.069 60.0676 113.471C59.1014 112.03 58.6945 110.281 58.6945 110.281C58.8473 108.737 58.4409 108.531 58.7457 107.862C59.0506 107.193 58.8982 107.193 59.0506 105.907C59.0506 105.907 60.9326 98.5991 61.644 94.4314C62.3553 90.2625 62.4577 87.6899 62.1525 85.2202C62.2363 83.4771 62.4243 82.5088 62.4871 82.2241C62.7527 82.1869 62.9266 82.1425 62.9753 82.0894C63.3145 81.7202 63.7833 75.4433 64.0965 74.309C64.4088 73.1746 65.2948 69.5355 65.3729 68.4275C65.451 67.3199 65.5035 66.3441 65.4774 65.8428C65.4741 65.7947 65.4721 65.7441 65.4712 65.6939C65.4993 65.4915 65.513 65.3243 65.5076 65.2022C65.5076 65.2022 65.4944 65.2215 65.4712 65.2557C65.4865 64.9033 65.5464 64.5454 65.7112 64.2607C65.9723 63.812 67.093 63.4963 67.093 63.3379C67.093 63.1794 66.3891 60.8849 66.3891 60.4103C66.3891 59.9354 66.0764 58.8015 66.0504 58.3796C66.0244 57.9569 65.7901 57.2449 65.8678 57.0605C65.9463 56.8757 67.3008 52.3924 67.7184 51.3634C68.1348 50.3349 68.448 50.3349 68.474 49.4911C68.5 48.647 68.526 48.1988 68.4479 47.7238C68.3695 47.2493 68.1088 44.4797 67.9522 43.6364C67.7969 42.7923 67.4838 38.467 67.5098 37.913C67.5358 37.359 67.4578 36.6733 67.4578 36.0667C67.4578 35.4604 67.4318 34.4841 67.2752 33.5346C67.119 32.5855 66.5977 31.3713 65.9463 30.8972C65.2948 30.4223 59.3538 28.1545 58.8849 27.8112C58.5061 27.5344 58.3987 27.4299 58.2347 27.33C58.2686 26.8111 57.6556 26.4381 57.2599 26.2533C57.3412 25.9582 57.4226 25.6835 57.4941 25.502C57.6742 25.1245 57.846 24.7666 57.9278 24.601C58.1302 24.1921 58.6858 23.4763 58.7606 23.4002C58.837 23.3233 59.0382 23.7572 59.1646 23.8346C59.291 23.9111 59.4674 24.0131 59.6186 23.8852C59.7706 23.7573 59.7706 23.1953 59.871 22.9654C59.9722 22.7358 60.225 21.9431 60.0734 21.6116C59.9222 21.2792 59.7702 21.1261 59.7446 20.9472C59.7194 20.7686 59.417 17.8557 59.2906 17.4472C59.1642 17.0383 58.7858 14.0748 54.823 13.5384C53.7668 13.3954 51.9199 13.5129 50.1275 16.3999C50.1275 16.3999 49.1683 17.2683 49.1939 19.8233C49.1939 19.8233 48.7643 20.4618 48.9415 20.8966C49.1179 21.331 49.0927 22.1484 49.9007 22.4294C49.9007 22.4294 50.2791 22.8383 50.3799 23.1953C50.4811 23.5536 50.8202 24.514 50.7202 24.9735C50.6194 25.4338 50.2039 25.9042 49.8251 26.4151ZM62.8506 46.0493C62.856 46.0614 62.8622 46.0735 62.8688 46.0853C62.984 46.2797 63.1051 46.3541 63.2773 46.684C63.3422 46.8061 63.374 46.9261 63.3901 47.0477C63.3979 47.1936 63.3983 47.3396 63.3983 47.4483C63.3983 47.7062 63.1699 48.6319 63.1699 48.6319C63.1699 48.6319 63.0427 48.4776 62.9663 48.2205C62.8903 47.9625 62.839 48.0144 62.8138 47.6026C62.7952 47.3045 62.8308 46.4808 62.8506 46.0493ZM57.1082 26.8257C57.3462 26.9235 57.5932 27.0348 57.7944 27.1301C57.5701 27.0456 57.2987 26.9503 57.0992 26.8604C57.1025 26.8487 57.1058 26.8374 57.1082 26.8257ZM51.7298 87.2271C51.8827 86.2492 52.6452 83.2129 52.7977 82.5953C52.7997 82.5882 52.801 82.582 52.803 82.5753C53.5032 82.5335 54.4294 82.485 55.4348 82.4356C55.617 82.7145 55.8409 83.197 55.8991 83.9333C56.0008 85.2202 56.5093 86.4553 56.0516 88.4107C55.5939 90.3662 55.3398 92.0641 55.289 93.4535C55.2378 94.8433 55.4922 98.8056 55.4414 100.555C55.3902 102.304 55.289 104.569 55.289 105.187C55.289 105.804 54.9837 106.01 54.6785 106.422C54.3736 106.834 53.4078 108.223 53.5606 109.046C53.6482 109.52 53.9543 110.641 54.141 111.85C53.7965 110.927 52.9542 108.988 52.6965 108.377C52.3912 107.657 52.3908 106.576 52.2892 106.268C52.1875 105.959 52.0855 105.547 51.9331 105.135C51.7806 104.723 51.7294 100.041 51.7294 99.1656C51.7294 98.291 51.9331 95.9751 51.8823 94.0715C51.8319 92.167 51.5778 88.2046 51.7298 87.2271Z" fill="#8BC1CA" fill-opacity="0.5"/>
<path d="M139.822 43.7019C140.156 47.3424 140.491 50.4793 140.491 50.4793C140.491 50.4793 140.714 53.2798 140.937 54.0642C141.161 54.8477 141.607 56.6962 141.607 56.8647C141.607 57.0327 141.662 57.3126 141.662 57.3126C141.662 57.3126 141.747 57.3202 141.886 57.3311C141.916 57.4514 141.964 57.6575 142.038 58.0099C142.051 58.0669 142.408 58.1573 142.819 58.213C142.833 58.3274 142.865 58.5866 142.885 58.8002C142.923 59.2105 143.096 59.6707 143.257 60.1802C143.425 60.715 143.678 62.0579 143.802 62.1073C143.844 62.1246 143.941 62.1676 144.055 62.2119C143.732 65.3155 143.688 72.3345 143.742 73.3683C143.801 74.5038 143.682 80.4814 143.623 81.7963C143.563 83.1113 143.086 90.7027 142.789 92.2574C142.491 93.8118 142.074 103.495 142.133 104.691C142.193 105.886 142.61 106.305 142.67 107.261C142.729 108.218 143.086 109.413 143.146 110.25C143.206 111.087 143.086 111.864 142.908 112.163C142.729 112.462 143.265 113.419 143.265 113.419C143.265 113.419 148.446 113.419 148.685 113.478C148.924 113.538 149.935 113.478 150.233 112.88C150.531 112.283 150.054 111.565 149.816 111.207C149.579 110.848 149.876 110.729 150.055 110.071C150.233 109.414 150.829 107.56 150.829 106.723C150.829 105.887 151.782 103.615 151.603 102.719C151.425 101.821 150.293 100.926 150.293 100.149C150.293 99.3714 149.697 98.1754 150.114 96.8014C150.531 95.426 151.425 91.1818 151.603 90.5841C151.782 89.9867 151.901 88.9706 151.841 88.1335C151.782 87.2964 152.318 86.8777 152.378 86.5188C152.437 86.16 152.259 85.802 152.259 85.3833C152.259 84.9654 152.497 84.4271 152.735 83.8889C152.973 83.3507 153.39 82.8124 153.33 82.2151C153.271 81.6174 153.866 78.6877 154.104 77.8514C154.342 77.0147 155.415 71.6945 155.653 71.0368C155.891 70.3791 156.307 68.9451 156.487 68.8856C156.532 68.8949 156.618 69.1393 156.723 69.5196C156.942 70.4112 157.234 72.0225 157.44 72.8904C157.602 73.5718 157.606 74.1657 157.652 74.796C157.654 74.8314 157.656 74.8686 157.66 74.9053C157.7 75.4026 157.773 75.9265 157.977 76.5369C157.998 76.6264 158.025 76.7142 158.055 76.8011C158.493 78.4011 158.828 81.9606 159.108 83.7099C159.199 84.2769 159.312 85.0109 159.422 85.8084C159.562 87.0984 159.695 88.3247 159.797 89.2657C159.839 89.9285 159.854 90.53 159.823 91.0028C159.704 92.7961 159.347 98.3553 159.347 99.7901C159.347 101.225 159.883 101.165 159.823 102.3C159.763 103.436 158.691 107.68 158.691 108.338C158.691 108.996 159.525 110.31 159.347 110.789C159.168 111.267 159.192 113.301 159.192 113.301C159.728 113.54 169.078 113.497 169.555 113.497C170.031 113.497 170.424 112.881 170.662 112.523C170.9 112.164 170.602 112.044 170.483 111.626C170.364 111.207 169.828 110.609 169.292 110.49C168.756 110.371 167.982 110.011 167.685 109.773C167.387 109.534 167.148 109.115 167.208 108.757C167.268 108.398 167.743 107.801 167.983 107.561C168.196 107.347 168.739 106.991 168.853 106.705C168.884 106.689 168.895 106.656 168.876 106.605C168.876 106.481 168.825 106.338 168.76 106.186C168.669 105.84 168.528 105.321 168.35 104.771C168.255 104.392 168.14 103.971 168.041 103.676C167.864 103.138 168.22 101.823 168.22 101.464C168.22 101.106 168.995 97.8774 168.995 97.1602C168.995 96.4426 168.816 91.9598 168.816 91.3021C168.816 90.7445 168.731 88.5561 168.632 87.5012C168.752 87.4822 169.025 87.2673 169.025 87.2673C169.025 87.2673 171.169 87.3572 171.258 87.3272C171.347 87.2973 171.437 87.6561 171.556 87.686C171.675 87.716 172.062 87.3272 172.062 87.3272L175.486 85.2946L175.844 84.8767C175.844 84.8767 176.469 66.4055 176.499 65.9871C176.528 65.5688 176.082 65.3295 175.784 65.2995C175.486 65.2695 173.014 65.1505 173.014 65.1505C173.014 65.1505 173.012 65.0715 173.006 64.9529C173.473 64.6021 173.354 64.329 173.521 64.1344C173.7 63.925 173.907 63.5961 174.116 63.3272C174.325 63.0583 174.176 62.4901 174.235 62.2808C174.294 62.0773 173.985 60.4043 173.914 60.1506L174.113 60.1114L174.133 59.3659C174.133 59.3659 174.039 59.4038 173.852 59.4596C174.249 59.2312 174.414 59.0231 174.414 59.0231C174.414 59.0231 174.116 56.3931 174.116 55.1972C174.116 54.0021 173.878 52.2089 173.699 51.6107C173.52 51.0134 173.461 48.2036 173.401 47.5459C173.341 46.8886 172.925 46.2305 172.866 45.3343C172.806 44.4381 172.628 41.389 172.389 40.7916C172.15 40.1939 172.092 39.5362 171.913 37.504C171.734 35.471 171.615 32.841 171.377 32.4227C171.138 32.0043 171.079 28.3579 170.662 27.7601C170.245 27.1624 170.424 25.489 170.304 24.5924C170.185 23.6953 170.104 22.0367 170.104 22.0367C169.925 19.2122 168.83 19.4587 168.563 19.2569C168.295 19.0551 168.071 18.9656 167.423 18.6296C166.776 18.2932 164.766 17.2843 164.274 17.0377C163.783 16.7916 162.153 16.0516 161.929 16.0069C161.706 15.9621 160.946 15.2445 160.768 15.155C160.589 15.0659 160.276 14.9312 159.74 14.1465C159.725 14.1233 159.706 14.1034 159.688 14.0815C159.678 14.0359 159.665 13.9954 159.652 13.9591C159.718 13.6729 159.92 12.8281 160.031 12.5326C160.165 12.1738 159.942 11.9497 160.076 11.9049C160.21 11.8602 160.567 12.0396 160.745 11.5461C160.924 11.0526 161.638 9.03521 161.416 8.54257C161.416 8.54257 161.237 8.22849 160.701 8.49782C160.701 8.49782 161.058 8.04949 161.147 6.65896C161.236 5.26927 160.611 1.63803 156.681 1.50337C154.982 1.44511 152.527 2.13107 151.544 4.46256C151.544 4.46256 151.008 6.97262 151.723 8.22849C151.723 8.22849 151.544 8.27323 151.321 8.18373C151.098 8.09382 150.874 8.22848 150.919 9.12469C150.964 10.0217 151.098 10.6938 151.41 11.1869C151.723 11.6803 151.946 11.7251 151.946 11.7251C151.946 11.7251 152.081 12.5322 152.259 12.8463C152.438 13.1595 152.394 13.5631 152.394 13.5631C152.394 13.5631 152.405 13.5348 152.433 13.4888C152.407 13.5344 152.394 13.5631 152.394 13.5631C152.495 13.4913 152.609 13.4331 152.727 13.3807C152.331 13.8683 151.964 14.7177 151.824 15.0592C151.806 15.055 151.806 15.0549 151.806 15.0549L151.822 15.0638C151.786 15.1541 151.765 15.2082 151.765 15.2082C151.765 15.2082 150.341 15.8114 149.224 16.4835C148.107 17.1555 143.38 18.8635 142.024 19.9687C142.024 19.9687 141.312 21.3824 140.547 23.597C140.046 25.0534 140.169 25.5207 140.101 27.1252C140.068 27.9311 140.397 28.4993 140.38 29.366C140.357 30.5496 140.073 31.7983 139.878 33.0065C139.152 37.485 139.668 42.0378 139.822 43.7019ZM171.108 63.0554C171.108 63.0554 171.227 63.0254 171.257 63.2648C171.257 63.2681 171.257 63.2728 171.257 63.2762C171.189 63.2909 171.133 63.3036 171.096 63.3129C171.102 63.2276 171.106 63.1411 171.108 63.0554ZM168.935 56.2711C169.113 56.8689 169.351 58.0045 169.47 58.4232C169.589 58.842 169.767 59.9176 169.767 59.9176C169.767 59.9176 169.772 59.9189 169.779 59.921C169.771 59.9699 169.68 60.5584 169.708 60.8738C169.738 61.2026 169.619 62.1887 169.798 62.697C169.976 63.2052 169.619 64.3708 169.559 64.879C169.5 65.3873 169.143 66.0146 169.44 66.194C169.738 66.3734 170.126 66.194 170.334 66.0146C170.362 65.9914 170.395 65.9449 170.432 65.8816C170.434 65.985 170.441 66.0859 170.453 66.1644C170.483 66.373 170.87 66.6723 170.87 66.6723C170.87 66.6723 170.751 66.7022 170.513 66.8517C170.353 66.9521 169.59 67.9657 169.106 68.623C169.052 68.0257 168.862 67.1978 168.815 66.7318C168.782 66.4089 168.522 65.2898 168.586 64.4303C168.606 64.1605 168.836 64.0837 168.835 63.8709C168.834 63.5088 168.762 62.2964 168.762 62.2964C168.762 62.2964 168.696 61.9502 168.636 60.4558C168.576 58.961 168.458 55.4345 168.458 55.4345C168.458 55.4345 168.755 55.6734 168.935 56.2711ZM159.537 13.7526C159.499 13.7108 159.472 13.6952 159.472 13.6952C159.427 13.6378 159.373 13.5825 159.313 13.5302C159.41 13.6036 159.485 13.6783 159.537 13.7526Z" fill="#8BC1CA" fill-opacity="0.5"/>
<path d="M178.558 43.5896C178.765 44.7359 178.89 46.5777 179.348 47.0683C179.805 47.5601 180.22 47.5186 180.844 47.355C181.382 47.2137 183.527 47.0418 184.24 46.9186C184.305 46.9664 184.373 47.0121 184.445 47.0548C184.999 47.3827 185.277 47.3278 185.553 47.3278C185.553 47.3278 185.546 47.3995 185.535 47.5164C185.509 47.5244 185.486 47.5336 185.471 47.5462C185.314 47.6745 185.207 48.7457 185.38 49.1667C185.351 49.4845 185.332 49.7369 185.332 49.8111C185.332 50.0564 184.002 52.5942 183.753 54.4771C183.503 56.36 183.171 60.4529 183.42 62.0905C183.67 63.7282 184.335 65.6102 185.332 70.4406C186.328 75.2705 187.991 86.5672 188.323 88.9415C188.656 91.315 188.905 95.3265 188.822 96.3089C188.739 97.2916 188.24 100.075 188.157 100.812C188.074 101.548 187.907 102.367 187.991 103.185C188.074 104.004 187.409 105.232 187.159 106.051C186.91 106.869 187.242 106.46 186.91 106.869C186.578 107.279 186.079 108.507 186.245 108.916C186.411 109.325 186.578 110.226 186.661 111.617C186.744 113.009 186.661 113.418 186.661 113.418H188.988C188.988 113.418 188.572 110.799 189.238 110.799C189.902 110.799 190.9 111.617 191.315 112.027C191.731 112.436 191.648 112.518 191.897 112.845C192.146 113.172 193.892 113.5 195.638 113.5C197.383 113.5 199.46 113.255 199.46 112.845C199.46 112.436 197.964 111.781 196.884 111.535C196.884 111.535 196.717 109.734 196.717 109.079C196.717 108.424 197.217 104.004 197.134 103.022C197.05 102.039 196.385 94.6716 196.551 93.1983C196.717 91.7242 198.047 84.1112 198.463 82.1465C198.879 80.1818 202.37 69.1308 202.785 67.5758C203.2 66.0199 204.186 62.6528 204.364 61.5996C204.697 59.6349 204.789 56.3764 204.281 54.5601C203.616 52.1858 202.619 51.6122 201.87 50.0572C201.358 48.9918 201.041 48.5793 200.918 48.3462C200.992 47.9441 200.86 47.2552 200.793 47.1953C200.961 47.1731 201.117 47.1249 201.293 47.0158C201.681 46.7773 201.769 46.7358 202.043 46.3278C202.207 46.5878 202.515 46.9982 202.91 47.1098C203.345 47.2326 205.091 47.6418 205.61 47.0075C206.13 46.3727 206.774 45.3908 206.899 45.0428C207.023 44.6948 207.106 43.201 207.023 42.8735C206.94 42.5456 206.4 40.6426 206.233 40.2334C206.082 39.8611 205.691 37.1686 205.621 36.6856C206.357 36.4541 207.153 36.1372 207.328 35.9221C207.55 35.6491 207.494 35.3217 207.494 35.3217C207.494 35.3217 204.225 26.2626 203.56 25.7167C202.895 25.1709 198.075 23.1517 197.354 22.6603C196.634 22.1693 196.412 21.7325 196.191 21.3505C196.069 21.1409 195.797 20.8172 195.522 20.5401C195.474 19.9648 195.332 18.0542 195.537 17.8534C195.778 17.6157 197.225 15.6359 197.386 14.2108C197.546 12.7858 197.467 5.42181 191.758 5.50063C188.703 5.54339 187.256 7.55921 186.613 9.30168C185.97 11.0437 186.372 12.6269 186.533 13.1023C186.694 13.5773 186.854 14.3698 186.935 15.0821C187.015 15.7948 186.614 16.1118 187.337 17.0618C188.06 18.0119 188.623 18.3284 188.623 18.3284C188.623 18.3284 188.382 18.8823 188.704 19.1997C189.025 19.5162 189.025 19.5162 189.025 19.5162L189.246 19.8198C188.886 19.8307 188.615 19.8483 188.489 19.8776C188.489 19.8776 186.716 21.6784 186.605 22.1702C186.494 22.6611 186.494 22.6612 186.494 22.6612C186.494 22.6612 184.666 23.8623 183.392 24.5713C182.117 25.2807 181.008 25.6627 180.842 25.9897C180.676 26.3176 179.845 27.6819 179.9 28.9371C179.956 30.1924 179.623 31.5022 179.623 31.9936C179.623 32.4849 179.068 33.8488 178.958 34.5037C178.847 35.1586 179.346 35.0492 179.29 35.5406C179.235 36.0319 178.792 36.5225 179.014 36.7413C179.054 36.7808 179.162 36.8466 179.32 36.9266C179.217 37.2805 178.842 38.5945 178.806 39.088C178.765 39.6603 178.35 42.4433 178.558 43.5896ZM183.212 40.5197C183.212 40.1365 183.322 39.4687 183.438 39.0486C183.745 39.8389 184.105 40.822 184.223 41.3788C184.31 41.7838 184.32 42.1633 184.288 42.5209C184.174 42.5138 184.029 42.5327 183.877 42.5662C183.503 42.648 183.046 42.6064 183.004 42.4844C182.963 42.3616 183.212 40.9289 183.212 40.5197Z" fill="#8BC1CA" fill-opacity="0.5"/>
<path d="M101.704 47.2521C101.887 47.2129 103.54 46.2613 103.499 44.4165C103.457 42.572 103.54 39.8477 103.29 38.5903C103.039 37.3324 101.868 34.3561 101.909 33.0565C101.952 31.7569 101.659 30.3739 100.78 28.7393C99.9022 27.1043 98.8247 24.3142 97.5281 23.7277C96.2312 23.1415 93.0436 23.0804 92.3743 22.5351C91.705 21.9902 90.7019 21.8225 90.7431 21.4875C90.7751 21.2309 90.765 20.6161 90.5783 20.1403C90.5943 20.1551 90.6048 20.1626 90.6048 20.1626C90.6048 20.1626 90.0746 18.2453 90.1856 18.0224C90.2979 17.7982 91.1337 17.2951 91.2459 16.6246C91.3569 15.9538 91.0782 14.2214 91.1896 13.7178C91.3006 13.2151 91.3014 12.4326 91.0227 12.0971C90.7435 11.7613 90.7435 9.86122 90.2979 8.85535C89.8514 7.84948 88.8475 7.01092 88.5692 6.8432C88.29 6.67591 88.0113 5.44542 86.0038 5.50188C84.2191 5.55119 83.2711 6.39566 82.4904 7.0109C81.7097 7.62613 80.6507 8.68805 80.372 10.7002C80.0932 12.7124 81.0959 15.1156 81.5424 15.8981C81.9889 16.6807 82.2676 16.7363 82.3231 17.4628C82.379 18.1897 82.7132 18.3574 82.8251 18.7484C82.9369 19.1399 83.2156 19.3072 83.2711 19.4749C83.2711 19.4749 82.7137 20.6907 82.7137 21.0265C82.7137 21.3615 82.7137 21.3615 82.7137 21.3615C82.7137 21.3615 79.2427 23.0387 77.2353 24.3383C75.2278 25.6374 74.3912 26.6433 74.0569 27.524C73.7227 28.4043 72.9281 30.9192 74.1827 33.9789C74.1827 33.9789 74.0569 34.3986 74.6422 35.2364C75.2278 36.0749 75.1017 36.1588 75.1853 36.6615C75.2694 37.1651 75.6877 38.506 76.0644 39.4284C76.4407 40.3504 76.859 40.5603 76.9002 40.8957C76.9427 41.2307 76.9839 42.4886 76.9427 43.0334C76.9002 43.5787 76.7846 45.0646 76.9002 46.1775C77.1117 48.2069 76.8178 51.6923 76.7211 52.9067C76.526 55.3546 76.4281 56.138 76.4281 56.138C76.4281 56.138 76.1174 57.6289 76.5256 58.4881C76.4104 58.8286 76.6059 59.7612 76.5256 59.9571C76.2326 60.6697 76.6496 60.3886 76.7758 60.933C76.9006 61.4779 76.4827 62.5268 76.5243 63.4067C76.566 64.2874 76.2317 65.0417 76.3566 65.8802C76.4827 66.718 76.3991 67.348 76.3566 68.144C76.3154 68.9404 76.106 68.9404 76.2729 69.2337C76.4407 69.527 76.3566 70.1144 76.3566 70.4077C76.3566 70.7006 76.1481 71.2459 76.2317 71.8325C76.3154 72.4194 76.1481 72.5871 76.3566 73.0064C76.566 73.4257 76.6496 73.4675 76.4827 74.0549C76.3154 74.641 76.1897 74.893 76.1897 75.3958C76.1897 75.8985 76.3566 76.5698 76.3991 77.3237C76.4407 78.0788 76.4407 78.1205 76.1485 79.0425C75.8555 79.965 75.6461 81.3484 75.6049 82.2283C75.5624 83.109 75.3955 83.8629 75.4372 84.4077C75.4788 84.9526 75.5624 87.3423 75.4372 88.2643C75.3119 89.1867 75.0609 89.6478 75.1021 90.6958C75.1446 91.7434 75.6045 95.3488 75.6457 96.6901C75.6881 98.0314 75.813 98.7861 75.9387 100.002C76.0648 101.218 75.9387 101.595 75.9803 102.517C76.022 103.439 75.8551 104.989 75.9387 105.242C76.0224 105.493 76.1893 105.996 76.1481 107.128C76.1056 108.26 75.855 108.26 75.8126 109.015C75.7714 109.769 75.5208 109.685 75.7714 110.272C76.022 110.859 76.0644 111.614 76.1056 112.158C76.1481 112.703 76.0644 113.291 76.0644 113.291C76.0644 113.291 78.071 113.5 81.7093 113.5C81.8354 113.5 82.2117 113.208 82.4627 113.249C82.7132 113.291 83.6756 113.459 84.846 113.375C86.0168 113.291 86.3519 112.956 86.3935 112.747C86.4356 112.537 86.2682 111.783 86.0593 111.531C85.8499 111.279 84.9292 111.154 84.4697 110.734C84.0094 110.315 83.6751 110.105 83.8416 109.98C84.0094 109.854 84.4697 109.477 84.5538 109.184C84.6366 108.89 84.0094 108.345 84.1346 107.884C84.2604 107.422 84.3861 106.291 84.3016 105.956C84.2179 105.621 83.0475 102.895 83.2148 102.183C83.3825 101.47 84.5538 94.8891 84.5113 93.2123C84.4697 91.5356 84.9717 86.7566 85.0133 84.6188C85.023 84.1207 85.0793 83.4394 85.1626 82.6758C85.398 81.0096 85.6822 78.6241 85.8356 78.1635C85.9958 77.6823 86.415 75.2491 87.0914 73.2294C87.2667 72.7646 87.4475 72.3027 87.6182 71.8893C87.743 71.6264 87.8734 71.3832 88.01 71.1767C88.3884 70.6074 88.6179 70.2042 88.7583 69.9223C88.8475 69.8599 88.9025 69.8772 88.9025 70.031C88.9025 70.3668 88.9025 71.2888 89.0278 71.792C89.1531 72.2956 89.5714 72.4207 89.3625 73.0494C89.1531 73.6782 88.9858 73.2589 89.0694 73.8876C89.1531 74.5163 89.0694 75.6486 89.0278 76.4867C88.9862 77.3249 89.0278 77.032 89.0694 78.1639C89.1111 79.2958 88.7764 81.643 88.9442 82.5658C89.1115 83.4878 89.4461 83.739 89.4037 84.6618C89.3625 85.5838 88.8605 85.3327 89.0274 86.4224C89.1951 87.5121 89.1527 87.9731 89.1951 89.1054C89.2363 90.2369 88.9437 90.9073 88.9858 92.3746C89.0274 93.8423 89.1531 97.4891 88.7352 99.669C88.3161 101.848 88.4422 102.184 88.3585 103.483C88.2749 104.783 88.0655 103.651 87.8566 105.077C87.6476 106.502 88.1916 106.627 88.108 108.094C88.0243 109.561 87.6056 110.106 87.6056 111.49C87.6056 112.872 87.5644 113.334 87.5644 113.334C87.5644 113.334 93.0882 113.234 93.7953 113.376C94.0047 113.417 94.3813 113.125 94.8413 113.166C95.3008 113.209 99.1909 113.544 100.446 113.46C101.7 113.376 102.202 113.041 102.286 112.873C102.369 112.705 102.16 112.035 101.742 111.784C101.324 111.533 99.4839 111.532 98.564 110.945C97.6437 110.358 97.4764 110.065 97.0165 109.73C96.5561 109.394 96.7235 109.142 96.2219 108.472C95.7199 107.801 95.2604 108.556 95.2604 107.215C95.2604 105.874 96.2639 100.382 96.3056 99.2918C96.3472 98.2017 96.6823 92.6688 96.6823 90.7822C96.6823 88.8956 97.2263 83.1111 97.7699 81.6855C98.313 80.2603 100.112 72.7565 100.363 70.3672C100.614 67.9775 100.53 67.1394 100.656 65.1693C100.758 63.5613 100.806 62.5209 100.979 61.984C101.581 61.7746 102.045 61.531 102.12 61.2322C102.277 60.6035 100.606 51.6708 100.606 47.7682C100.605 47.1054 100.937 47.4172 101.704 47.2521Z" fill="#8BC1CA" fill-opacity="0.5"/>
<path d="M35.3336 112.695C34.3002 112.477 31.4723 113.021 31.0372 112.041C30.6029 111.063 30.874 110.79 30.874 110.464C30.874 110.138 30.2222 107.364 30.4385 106.929C30.656 106.493 31.5811 102.632 31.6899 101.489C31.7982 100.347 30.8196 89.6863 30.4385 87.3474C30.059 85.0085 30.7109 79.1884 31.0368 78.21C31.35 77.2725 31.6612 72.803 31.7358 71.5653C31.8062 71.6345 31.8674 71.6589 31.9791 71.6446C32.1958 71.618 32.2224 71.537 32.4378 71.5906C32.6537 71.6446 33.0855 71.753 33.1938 71.8065C33.3022 71.8609 33.1938 72.1844 33.1938 72.1844C33.1938 72.1844 32.3303 72.2919 32.2224 72.4809C32.114 72.6702 31.872 72.9131 32.0065 72.9675C32.141 73.0207 32.6272 73.0476 32.9236 72.9941C33.2204 72.9401 34.5696 72.3999 34.8125 72.076C35.0557 71.7525 35.5684 70.2681 35.7299 70.0252C35.8918 69.7823 36.2422 69.35 36.3232 69.0805C36.4041 68.811 35.3787 65.4099 35.3243 65.1404C35.3138 65.0877 35.3049 65.0164 35.2965 64.9392L35.412 64.1122C35.471 64.0827 35.5212 64.0511 35.5499 64.0131C35.7126 63.7955 35.6591 60.097 35.8223 59.825C35.9854 59.5526 36.4197 56.8877 36.4197 55.8541C36.4197 54.8204 36.0394 53.1344 35.9306 51.8292C35.8223 50.5239 36.5837 47.4778 36.4197 46.4442C36.2574 45.4114 35.3871 41.7665 34.952 38.9384C34.5173 36.1099 34.027 31.7038 33.9186 29.9638C33.8102 28.2229 31.7426 27.6249 29.8402 26.3197C27.9365 25.0144 25.0547 23.926 23.8037 23.546C23.8037 23.546 23.7413 22.8611 23.6174 22.2682C23.6642 21.9177 23.7839 21.3712 24.0761 21.2615C24.5104 21.0983 25.435 20.4999 25.7618 19.9015C26.0877 19.3035 25.9249 16.6378 25.8701 15.931C25.8153 15.2237 25.707 14.7345 25.599 14.3537C25.4898 13.9729 25.1087 13.4285 25.0543 12.3953C25.0007 11.3625 24.9459 10.818 24.4024 10.1112C23.8585 9.40398 23.641 7.50033 20.5412 6.0863C17.6779 4.77981 13.0366 5.86871 12.7647 7.28274L12.6563 7.93555L12.0032 7.06554L12.2208 7.88114L11.4572 7.9503C11.6516 7.95367 11.84 7.9967 11.84 8.15316C11.84 8.47915 10.6978 9.40398 10.4803 10.1112C10.2631 10.818 10.3719 12.1241 11.1873 13.9185C12.0028 15.7134 12.4383 16.8558 13.0906 17.7262C13.7437 18.5962 14.6135 19.6843 14.9942 19.8475C15.0836 19.8859 15.2396 19.923 15.4428 19.9555C15.1641 20.4265 14.3487 21.7891 14.1244 21.9688C13.852 22.1864 7.87039 24.4712 6.78259 25.0692C5.69521 25.6677 5.31447 26.1029 4.93374 26.8101C4.55301 27.5169 3.03009 29.9642 2.86734 30.5086C2.70417 31.0522 2.48661 32.6299 2.48661 33.5543C2.48661 34.4787 1.39923 39.0485 1.50759 41.7138C1.61722 44.3786 1.50632 48.8535 1.72431 49.7783C1.94187 50.7027 1.7652 54.0947 1.81959 55.0191C1.87356 55.9439 2.56883 58.1647 2.67719 58.9259C2.78597 59.6875 3.0731 62.5206 3.34421 63.1186C3.61658 63.7171 3.38552 64.6976 3.43907 65.0244C3.45003 65.0902 3.58748 65.1387 3.79535 65.1754L3.9387 65.9775C3.9387 65.9775 4.20939 66.0091 4.57789 66.0386C4.50242 66.5793 4.41725 67.2275 4.40249 67.4902C4.37551 67.9756 4.21402 68.2455 4.32154 68.5964C4.42906 68.9477 4.34853 69.8109 4.5644 70.1078C4.77985 70.4047 5.88621 71.0251 6.23742 71.1605C6.27706 71.1756 6.31374 71.1837 6.34915 71.1879C6.21128 73.3357 6.02619 75.7492 5.91319 76.906C5.69563 79.136 5.85838 87.1315 5.69563 90.0688C5.53246 93.0061 5.20612 94.9641 5.20612 97.793C5.20612 100.621 5.91319 107.528 5.96758 108.291C6.02155 109.052 6.29392 109.977 6.40228 110.467C6.51106 110.956 6.23911 111.011 6.34831 111.935C6.45709 112.86 6.23953 113.077 6.40228 113.621C6.56502 114.165 6.23911 114.872 6.56503 114.981C6.89179 115.09 10.0797 116.022 12.8734 115.089C13.037 115.035 15.8649 114.926 16.1908 114.654C16.5167 114.383 16.136 113.675 15.9732 113.077C15.8105 112.479 16.4088 111.228 16.4088 110.629C16.4088 110.031 15.4837 107.42 15.7557 106.713C16.0281 106.006 16.9523 101.165 17.1154 99.479C17.2786 97.793 18.4748 86.9683 18.3112 85.5542C18.272 85.2211 18.2374 84.7715 18.2108 84.273C18.202 84.0318 18.1923 83.8062 18.1817 83.6021C18.1316 82.1109 18.1682 80.4392 18.4208 80.0065C18.4453 79.9656 18.4634 79.9386 18.484 79.9053C18.5954 79.8057 18.71 79.756 18.815 79.818C18.8665 80.343 19.0667 82.3656 19.2493 83.8387C19.248 84.0171 19.2438 84.1621 19.2362 84.2486C19.1953 84.6985 19.4306 85.1177 19.5035 85.5753C19.5495 86.2669 19.154 86.4036 18.9643 88.1107C18.7467 90.0688 18.6919 94.2569 18.8011 95.9977C18.9095 97.7382 19.2902 103.395 19.2358 104.429C19.1818 105.462 19.127 106.441 19.1818 107.094C18.9837 107.416 19.1751 108.075 19.4799 108.759C19.4955 108.918 19.5078 109.084 19.5078 109.269C19.5078 110.249 19.0183 111.01 19.127 111.827C19.2358 112.642 19.0722 112.914 19.2902 113.458C19.5078 114.002 19.2362 113.894 19.399 114.438C19.5626 114.982 19.1818 114.872 19.5626 114.982C19.9433 115.09 25.6526 115.145 26.414 115.09C26.414 115.09 26.8496 114.654 27.4479 114.819C28.0453 114.982 28.4804 115.036 28.4804 115.036C28.4804 115.036 33.1023 115.2 34.6253 114.982C36.1482 114.764 36.3657 114.492 36.4741 114.329C36.5846 114.163 36.3666 112.912 35.3336 112.695Z" fill="#8BC1CA" fill-opacity="0.5"/>
<path d="M110.193 111.066C110.077 111.825 109.349 112.775 109.196 113.079C109.043 113.383 108.66 113.193 107.855 113.876C107.05 114.561 107.855 115.852 107.932 116.004C108.009 116.156 107.817 116.46 110.04 116.498C112.263 116.536 112.646 116.042 112.838 115.928C113.029 115.814 112.838 115.207 113.029 114.294C113.221 113.383 113.566 112.357 113.834 112.395C114.102 112.433 114.026 116.346 114.026 116.346H114.83C114.907 114.712 115.291 111.939 115.559 111.18C115.827 110.42 116.057 108.71 115.98 107.647C115.904 106.583 114.408 105.557 114.408 105.557C114.332 104.646 114.562 100.429 115.405 97.8074C116.249 95.1864 116.555 93.8571 116.555 91.7674C116.555 89.6782 115.942 88.6526 116.21 88.0069C116.478 87.3612 116.977 84.7398 117.206 83.5623C117.436 82.384 117.398 80.5613 117.59 79.725C117.781 78.8892 118.356 77.4076 118.586 76.724C118.694 76.4048 118.809 75.8957 118.902 75.4436C119.656 75.4449 120.442 75.439 121.254 75.4243C121.456 76.8168 121.851 79.3623 122.227 80.8261C122.227 80.8261 122.419 82.5363 122.457 83.6382C122.496 84.7394 122.572 85.7275 123.071 86.6009C123.569 87.4747 123.837 88.6146 124.029 89.6782C124.221 90.7414 124.795 95.3382 124.91 96.5536C125.025 97.769 125.83 102.404 125.561 103.468C125.294 104.531 125.063 105.671 124.872 106.165C124.68 106.659 124.642 107.723 124.603 108.026C124.565 108.33 123.837 109.85 123.799 110.344C123.76 110.838 122.496 113.421 122.342 113.839C122.188 114.256 122.151 115.814 122.687 116.232C123.224 116.65 127.325 116.384 127.325 116.384C127.325 116.384 127.593 115.586 127.823 114.94C128.053 114.294 127.938 112.775 128.244 112.053C128.551 111.331 129.203 109.736 129.126 109.166C129.05 108.596 128.283 105.595 128.283 105.253C128.283 104.911 128.245 104.456 128.398 103.885C128.552 103.316 129.509 99.5167 129.701 98.1115C129.892 96.7063 130.812 90.3234 130.122 87.8163C129.433 85.3091 128.512 84.2455 129.05 82.2322C129.519 80.4706 129.96 76.1209 130.164 74.9844C130.87 74.9207 131.415 74.8376 131.736 74.7284C131.786 74.7221 131.835 74.7166 131.886 74.7107C131.886 74.7107 131.858 74.7082 131.802 74.7044C131.878 74.674 131.941 74.6424 131.984 74.6086C131.984 74.6086 131.617 64.4556 131.006 62.3014C131.05 61.5338 131.171 59.1334 131.043 58.287C130.889 57.2735 130.531 56.8177 130.328 56.1083C130.222 55.7414 129.992 55.2379 129.796 54.747C129.829 54.5872 129.877 54.3291 129.893 54.133C129.919 53.8293 129.893 54.133 130.097 53.5253C130.302 52.9175 130.48 52.2335 130.507 51.4238C130.532 50.6128 130.558 50.765 130.685 49.8275C130.813 48.8905 131.069 48.2575 131.477 46.6878C131.886 45.1177 132.525 42.4836 132.499 41.0906C132.474 39.6977 132.515 39.0086 132.356 37.9627C132.257 37.3111 131.835 35.5694 131.63 34.987C131.426 34.4046 130.501 33.6881 130.35 33.7252C130.348 33.7264 130.346 33.7277 130.344 33.7285C130.319 33.6725 130.274 33.6164 130.174 33.5185C129.867 33.2145 127.056 31.8468 126.597 31.7966C126.516 31.7878 126.245 31.754 125.834 31.7076C125.467 31.5149 123.811 30.6229 123.607 30.1502C123.377 29.6184 123.147 28.4785 123.453 28.4021C123.76 28.3262 124.986 26.8072 125.294 25.895C125.6 24.9836 126.673 21.4883 125.677 19.3616C124.68 17.234 122.304 15.1064 119.468 15.5622C116.631 16.0181 116.708 16.7022 116.708 16.7022C115.788 16.6263 114.408 17.4617 113.489 18.7534C112.569 20.0448 112.492 21.4887 112.799 22.8564C113.105 24.2245 114.102 27.3394 115.022 28.0989C115.942 28.8589 117.092 28.9348 117.245 29.3143C117.398 29.6943 117.705 30.4538 117.169 30.9861L116.742 31.3382C116.615 31.3538 116.492 31.3715 116.377 31.3913C116.377 31.3913 116.224 31.3407 115.61 31.5942L113.821 32.3035C113.821 32.3035 113.833 32.3562 113.85 32.4494C113.832 32.4418 113.815 32.4338 113.797 32.4279C113.483 32.3343 111.574 32.7514 111.018 33.093C110.462 33.4346 110.04 33.4346 109.83 34.0238C109.62 34.6129 109.064 36.7401 108.968 38.9432C108.872 41.1463 108.987 43.198 109.159 45.173C109.332 47.1483 109.907 49.5032 110.098 50.7001C110.29 51.8969 110.098 53.0934 111.018 53.5683C111.463 53.7981 111.674 53.8892 111.818 53.8841C111.721 53.995 111.695 53.9942 111.726 54.3358C111.778 54.8925 111.522 54.7407 111.471 55.1464C111.42 55.5512 111.318 55.6529 111.267 56.1593C111.215 56.6658 111.164 56.7671 110.96 57.3752C110.756 57.9829 110.449 57.4764 110.551 58.2363C110.653 58.9967 110.602 58.7429 110.398 59.8064C110.222 60.7245 110.273 61.3394 110.291 61.4912C110.233 61.6663 110.182 61.8506 110.163 61.9973C110.113 62.4022 110.01 62.7568 109.805 63.1115C109.601 63.4662 109.397 63.9727 109.397 64.2763C109.397 64.5804 109.499 65.5938 109.602 66.2015C109.703 66.8092 109.499 68.9364 109.55 69.6458C109.602 70.3551 109.499 73.2422 109.499 73.5459C109.499 73.809 109.499 74.7887 109.499 75.0506C109.492 75.0519 109.485 75.0523 109.478 75.0531C109.478 75.0531 109.486 75.0536 109.499 75.0553C109.499 75.0936 109.499 75.116 109.499 75.116C109.499 75.116 109.546 75.1181 109.63 75.1215C109.682 76.083 109.887 79.9346 109.887 81.3592C109.887 82.9922 110.346 85.3475 110.27 88.9191C109.695 92.8315 109.81 94.5411 109.963 96.1741C110.116 97.8078 110.653 103.088 110.768 104.266C110.883 105.443 110.844 108.521 110.615 108.901C110.384 109.28 110.308 110.305 110.193 111.066Z" fill="#8BC1CA" fill-opacity="0.5"/>
</g>
<defs>
<filter id="filter0_f_2085_98487" x="0" y="0" width="323" height="118" filterUnits="userSpaceOnUse" color-interpolation-filters="sRGB">
<feFlood flood-opacity="0" result="BackgroundImageFix"/>
<feBlend mode="normal" in="SourceGraphic" in2="BackgroundImageFix" result="shape"/>
<feGaussianBlur stdDeviation="0.75" result="effect1_foregroundBlur_2085_98487"/>
</filter>
</defs>
</svg>
